<svg width="748" height="597" viewBox="0 0 748 597" fill="none" xmlns="http://www.w3.org/2000/svg">
<path d="M133.821 8.05574C138.315 11.3645 142.89 14.6029 146.675 18.7365C130.25 23.9304 114.809 32.035 98.6446 37.9546C75.1922 48.3759 51.0306 57.3857 27.7577 68.2602C31.6822 71.3167 35.6028 74.3439 39.4725 77.4375C47.5886 75.9118 54.421 71.0086 62.265 68.6693C89.6126 56.5973 117.536 45.9398 144.9 33.8805C139.091 76.8875 133.34 119.887 128.107 162.966C115.251 152.942 102.204 143.166 89.3225 133.175C91.7134 117.397 93.449 101.513 95.506 85.6903C99.2589 81.5093 105.84 81.7828 110.466 78.902C108.609 94.877 106.721 110.856 104.229 126.766C108.609 130.224 113.044 133.645 117.543 136.983C120.307 109.99 123.636 82.9812 127.965 56.2122C97.9149 68.9265 67.8668 81.4318 37.7893 93.941C29.387 87.1412 20.6924 80.7231 12.1503 74.1059C8.12134 71.0484 4.07968 68.0074 0.050704 64.9499C4.18329 61.2701 10.0107 60.8088 14.6791 57.9075C54.5494 41.6819 94.1427 24.7179 133.821 8.05574Z" fill="#F5F5F5" fill-opacity="0.5"/>
<path d="M193.135 53.4562C194.26 54.2907 196.467 55.9802 197.563 56.8186C206.997 64.0925 216.491 71.2541 225.9 78.5612C214.123 94.0503 202.135 109.404 190.458 124.969C180.59 137.655 185.4 159.498 200.855 165.405C212.312 171.411 227.303 166.646 234.345 156.14C245.607 141.151 257.25 126.455 268.383 111.394C272.204 113.898 275.86 116.617 279.419 119.499C267.093 135.568 254.913 151.722 242.454 167.689C229.889 182.97 205.747 186.178 189.597 174.817C171.235 163.631 166.167 136.933 178.015 119.287C186.979 106.304 197.196 94.2273 206.488 81.4685C202.971 78.671 199.419 75.9526 195.8 73.2878C186.417 85.5817 176.701 97.6215 167.749 110.246C152.767 130.782 155.689 161.97 174.073 179.489C182.939 188.434 195.056 193.681 207.486 195.116C226.065 196.598 244.968 187.616 255.929 172.608C267.312 157.633 278.781 142.751 290.168 127.806C293.966 130.581 297.713 133.422 301.413 136.36C289.146 152.316 277.017 168.404 264.635 184.272C244.295 209.814 204.898 216.927 177.125 199.433C154.74 186.694 141.621 159.993 144.257 134.507C145.908 122.137 150.11 110.115 157.595 100.026C169.261 84.3728 181.271 68.957 193.135 53.4562Z" fill="#F5F5F5" fill-opacity="0.5"/>
<path d="M303.352 137.712C312.444 144.882 321.765 151.754 330.9 158.903C335.232 162.219 339.605 165.514 343.899 168.879C343.554 184.459 342.144 199.987 341.811 215.551C313.462 224.909 284.86 233.599 256.73 243.598C261.123 247.04 265.571 250.444 270.12 253.716C284.05 248.823 298.054 244.145 312.183 239.853C311.432 254.622 311.525 269.458 309.98 284.199C314.31 287.723 318.745 291.144 323.227 294.47C325.38 274.773 325.232 254.92 326.646 235.158C345.339 228.857 364.162 222.868 382.965 216.836C378.621 213.09 374.095 209.547 369.459 206.182C365.187 207.808 360.806 209.166 356.661 211.073C355.685 206.194 356.277 201.225 356.622 196.304C361.815 194.094 367.182 192.411 372.573 190.801C386.128 201.15 399.658 211.532 413.201 221.898C388.622 229.457 364.259 237.733 339.762 245.565C339.903 263.123 337.964 280.615 337.462 298.154C336.863 305.986 337.491 313.968 335.651 321.666C330.659 317.976 325.781 314.137 320.855 310.394C312.494 304.125 304.297 297.641 295.885 291.439C296.612 280.757 296.667 270.061 297.486 259.397C286.858 261.763 276.736 267.939 265.915 268.184C252.559 258.435 239.614 248.079 226.394 238.118C260.381 227.206 294.45 216.462 328.18 204.854C328.941 195.435 329.147 185.986 329.682 176.553C325.928 171.863 320.321 169.045 315.951 164.99C316.03 174.789 314.614 184.548 314.844 194.357C310.265 196.247 305.607 198.104 300.651 198.732C301.064 178.387 302.717 158.071 303.352 137.712Z" fill="#F5F5F5" fill-opacity="0.5"/>
<path d="M425.499 231.31C436.065 239.477 446.814 247.441 457.321 255.721C446.724 272.454 432.496 287.673 421.301 304.397C412.93 317.361 418.33 337.127 432.852 343.084C444.45 349.251 459.228 344.007 466.722 333.873C475.864 321.894 485.023 309.928 494.169 297.979C496.43 295.025 498.695 292.1 500.927 289.15C504.575 291.811 508.189 294.551 511.765 297.34C500.32 312.294 488.928 327.314 477.387 342.22C472.659 348.26 466.588 353.062 459.597 356.213C442.312 363.563 420.259 357.027 410.199 341.011C401.399 327.853 401.499 309.532 410.343 296.431C419.123 283.516 429.176 271.551 438.482 259.014C434.865 256.245 431.314 253.422 427.789 250.566C417.798 264.237 406.537 276.989 397.564 291.36C384.883 312.501 389.057 341.777 407.316 358.359C421.619 371.754 443.48 376.617 461.919 369.754C474.505 365.517 484.26 355.798 492.128 345.45C502.111 332.167 512.442 319.151 522.279 305.783C526.284 308.322 530.052 311.205 533.726 314.176C517.52 333.802 504.515 356.431 485.073 373.133C471.514 383.626 453.938 387.78 437.03 386.419C408.096 383.749 382.219 360.442 377.472 331.673C373.411 312.326 378.944 291.479 391.197 276.091C402.646 261.167 414.016 246.209 425.499 231.31Z" fill="#F5F5F5" fill-opacity="0.5"/>
<path d="M545.523 323.521C573.312 344.054 600.645 365.423 628.116 386.476C641.047 396.505 645.091 415.945 637.197 430.247C629.745 444.625 611.597 452.106 596.137 447.615C581.032 441.87 570.038 429.481 557.179 420.217C542.761 409.551 528.997 397.962 514.189 387.839C505.787 398.989 497.148 409.931 488.828 421.145C492.466 424.06 496.171 426.922 499.901 429.751C505.68 422.305 511.326 414.756 517.125 407.351C531.198 418.228 545.473 428.839 559.419 439.882C557.926 450.635 556.478 461.397 555.637 472.228C559.597 475.444 563.651 478.573 567.767 481.619C569.964 471.219 570.682 460.583 572.377 450.116C577.023 452.988 581.438 456.262 585.41 460.013C582.639 475.841 581.085 491.865 579.031 507.821C565.782 498.207 553.054 487.912 539.891 478.152C542.289 467.591 542.909 456.775 544.531 446.094C536.104 439.67 527.728 433.18 519.292 426.802C513.644 434.112 508.067 441.502 502.419 448.812C501.915 448.611 500.907 448.208 500.416 447.99C490.025 439.8 479.418 431.892 468.993 423.78C475.329 415.365 481.797 407.051 488.15 398.649C496.147 388.373 503.998 378.012 511.896 367.66C538.816 388.16 564.991 409.563 592.127 429.781C599.873 435.789 611.911 436.634 619.382 429.693C629.676 422.227 629.613 405.151 619.32 397.693C596.009 379.114 571.971 361.451 548.466 343.092C545.57 346.876 542.661 350.676 539.715 354.422C563.986 372.605 587.944 391.233 612.051 409.631C612.32 411.101 612.844 414.028 613.097 415.485C610.741 419.183 606.675 422.466 602.275 419.652C577.135 400.988 552.52 381.568 527.532 362.705C524.989 360.732 522.277 358.946 520.46 356.265C529.017 345.497 537.376 334.577 545.523 323.521Z" fill="#F5F5F5" fill-opacity="0.5"/>
<path d="M661.763 412.388C678.009 424.139 693.704 436.679 709.687 448.807C730.079 464.494 750.589 480.061 770.968 495.765C762.455 507.093 753.61 518.168 745.246 529.611C720.349 509.975 694.898 490.994 669.811 471.608C666.982 475.338 664.17 479.081 661.358 482.824C679.974 497.152 698.691 511.347 717.307 525.675C714.432 529.397 711.641 533.181 708.948 537.043C686.452 519.876 663.993 502.66 641.539 485.472C650.172 474.262 658.49 462.811 667.475 451.897C692.705 471.234 717.723 490.884 743.33 509.694C746.138 506.027 748.945 502.359 751.756 498.72C722.662 476.556 693.623 454.356 664.643 432.042C644.817 458.083 624.774 483.958 605.031 510.062C633.948 532.354 662.942 554.546 692.011 576.638C694.911 572.988 697.76 569.3 700.576 565.586C675.309 546.194 649.974 526.855 624.72 507.446C627.528 503.674 630.386 499.939 633.311 496.256C662.13 518.367 691.012 540.395 719.818 562.523C711.594 573.783 702.764 584.632 694.544 595.921C657.588 568.898 621.685 540.364 585.166 512.702C610.621 479.205 636.424 445.974 661.763 412.388Z" fill="#F5F5F5" fill-opacity="0.5"/>
</svg>
