<svg width="1390" height="202" viewBox="0 0 1390 202" fill="none" xmlns="http://www.w3.org/2000/svg">
<g opacity="0.7">
<path d="M113.914 0.153246C122.787 -0.0129071 131.693 -0.345188 140.465 1.21665C124.747 23.6473 113.083 48.8028 98.3956 71.898C78.856 107.721 57.0568 142.446 38.1819 178.668C46.0907 178.734 53.9664 178.767 61.842 178.934C70.6149 169.164 74.5028 156.37 82.1459 145.836C105.008 104.165 129.965 63.7233 152.86 22.0522C187.088 81.9669 221.382 141.815 256.407 201.264C230.487 201.032 204.567 201.298 178.647 201.132C166.419 178.9 153.259 157.168 140.565 135.202C141.263 126.296 149.836 120.282 152.894 112.173C165.987 134.139 179.046 156.137 191.275 178.634C200.147 178.767 209.053 178.801 217.959 178.668C195.362 141.915 173.463 104.597 153.06 66.6143C127.406 111.708 101.552 156.536 75.6659 201.397C58.4857 200.932 41.3055 201.231 24.1253 201.132C16.0836 201.165 8.04179 201.231 0 201.264C1.66153 192.624 8.57346 186.41 11.6639 178.236C46.3233 119.218 79.9194 59.5362 113.914 0.153246Z" fill="#D4B483"/>
<path d="M232.68 0.153104C234.907 0.119873 239.326 0.119892 241.519 0.119892C260.461 0.186353 279.369 0.0534447 298.31 0.186367C298.41 31.124 298.111 62.0949 298.41 93.0325C298.211 118.587 325.393 141.516 350.615 134.039C370.886 130.55 385.208 110.046 383.945 89.9752C383.68 60.1674 384.178 30.3597 383.68 0.585117C390.924 0.0534285 398.168 -0.0462793 405.446 0.153104C405.412 32.3535 405.645 64.5207 405.346 96.7211C404.249 128.157 376.867 155.539 345.498 156.802C311.503 160.424 279.303 131.613 277.209 97.8841C275.979 72.8283 277.209 47.706 276.611 22.617C269.466 22.4841 262.355 22.4841 255.21 22.617C255.244 47.2076 254.612 71.7982 255.509 96.3888C256.44 136.797 290.269 173.351 330.411 177.704C350.25 180.429 370.62 175.344 387.701 165.143C412.59 149.059 427.777 119.451 427.112 89.9088C427.012 60.0013 427.112 30.127 427.045 0.252791C434.522 0.0866388 441.999 0.0534447 449.509 0.186367C449.443 32.1874 449.675 64.2216 449.376 96.2226C448.379 148.129 405.512 195.183 353.54 199.935C312.965 205.485 270.596 184.45 249.295 149.724C239.426 132.51 233.112 113.27 232.813 93.2983C232.414 62.261 232.68 31.1904 232.68 0.153104Z" fill="#D4B483"/>
<path d="M453.265 0.0200195C471.675 0.285864 490.084 -0.0464638 508.527 0.152919C517.2 0.152919 525.907 0.0864907 534.58 0.186182C549.201 20.191 562.427 41.1594 577.049 61.131C550.298 100.343 522.584 138.957 496.73 178.767C505.603 178.867 514.509 178.867 523.414 178.601C536.275 158.962 549.434 139.522 563.125 120.447C576.45 139.821 590.906 158.463 603.201 178.568C612.073 178.833 620.979 178.867 629.852 178.734C613.536 151.784 594.162 126.861 576.849 100.542C594.362 74.5229 612.339 48.7692 630.251 22.9823C621.145 22.4506 612.007 22.3509 602.902 22.5835C599.08 28.7644 594.86 34.7127 591.471 41.1262C585.522 35.909 581.468 29.0635 577.148 22.5171C581.568 14.7079 586.719 7.39718 591.969 0.152919C619.085 0.119689 646.201 0.152919 673.317 0.152919C649.591 33.4499 626.828 67.4448 603.467 101.008C620.614 123.039 635.069 146.999 651.385 169.629C658.197 180.096 666.704 189.567 671.822 201.065C661.952 201.231 652.083 201.098 642.247 201.131C625.632 201.297 609.016 201.032 592.401 201.331C582.997 187.141 572.729 173.583 563.457 159.327C552.325 172.586 545.513 190.165 532.088 200.932C505.802 201.53 479.45 200.965 453.132 201.164C485.498 154.542 518.131 108.052 549.5 60.7986C541.359 48.171 532.486 36.0419 524.046 23.6137C514.774 21.3208 504.971 23.1817 495.534 22.2845C505.104 34.5798 512.747 48.2707 522.517 60.4331C518.563 67.2454 514.475 74.0909 508.826 79.6736C489.685 53.5876 472.14 26.3386 453.265 0.0200195Z" fill="#D4B483"/>
<path d="M697.941 0.152955C719.175 0.252646 740.443 -0.0796447 761.71 0.21943C764.502 31.5891 761.245 64.5537 763.272 96.4883C765.233 120.946 791.153 140.685 815.245 134.172C835.848 130.749 849.439 109.847 849.107 89.809C849.073 65.8498 849.073 41.8905 849.073 17.9645C849.073 12.0495 849.107 6.16771 849.073 0.285905C856.251 0.119753 863.462 0.0864938 870.673 0.152955C870.673 30.0937 870.806 60.0676 870.64 90.0416C870.507 102.237 867.483 114.167 861.701 124.9C846.98 150.887 812.819 163.946 784.639 153.445C760.813 145.337 743.234 122.109 741.739 97.02C740.343 72.23 741.473 47.4068 741.107 22.5836C733.863 22.5836 726.652 22.4507 719.441 22.2513C720.039 49.168 718.145 76.1512 720.704 102.968C725.123 141.914 758.686 174.846 797.765 178.136C828.77 181.226 861.07 166.239 877.718 139.754C889.515 122.242 892.439 100.542 892.373 79.873C892.14 53.4547 892.605 27.0365 892.107 0.651443C899.617 -0.0131674 907.16 -0.0131654 914.671 0.186218C913.175 40.6278 918.625 81.7672 910.218 121.644C903.239 147.996 885.062 170.227 862.399 184.848C823.287 209.439 768.091 205.019 734.295 173.284C710.469 152.781 697.31 121.112 697.908 89.8422C697.941 59.9347 697.841 30.0604 697.941 0.152955Z" fill="#D4B483"/>
<path d="M938.596 0.584676C993.526 -0.345779 1048.69 0.21912 1103.72 0.25235C1129.74 0.418503 1153.63 21.0547 1157.49 46.7419C1161.97 72.0968 1146.29 99.08 1122.43 108.351C1097.8 115.695 1071.95 110.677 1046.76 111.409C1018.25 111.874 989.672 110.545 961.193 112.073C961.359 134.271 961.027 156.436 961.359 178.634C968.77 178.8 976.213 178.833 983.657 178.8C983.756 163.813 983.59 148.826 983.756 133.872C1012.04 134.005 1040.31 133.607 1068.59 134.072C1077.1 149.092 1085.67 164.079 1095.08 178.567C1103.19 178.8 1111.33 178.833 1119.47 178.7C1112.19 163.448 1102.82 149.325 1094.85 134.47C1103.49 133.606 1112.23 133.474 1120.87 134.371C1132.66 157.034 1146.19 178.767 1159.01 200.898C1132.99 201.563 1106.98 200.865 1080.92 201.264C1073.74 185.612 1064.07 171.356 1055.8 156.303C1038.95 156.336 1022.1 156.236 1005.29 156.336C1005.22 171.024 1005.32 185.745 1005.26 200.433C1004.43 200.666 1002.76 201.131 1001.93 201.33C980.899 201.031 959.864 201.297 938.862 201.131C938.729 184.383 938.862 167.635 938.762 150.886C938.929 130.184 938.829 109.514 938.796 88.8118C992.596 88.6788 1046.33 90.4068 1100.13 89.709C1115.71 89.8087 1131.73 79.2413 1134.46 63.2575C1140.24 43.8841 1123.66 22.3839 1103.45 22.9156C1056.07 21.9851 1008.65 22.9156 961.226 22.4504C961.226 30.0269 961.226 37.6367 961.126 45.2133C1009.34 44.7149 1057.59 45.0803 1105.81 45.0139C1107.57 46.6089 1111.06 49.7991 1112.79 51.3941C1113.39 58.3393 1111.43 66.4144 1103.15 67.1122C1053.37 67.8433 1003.53 67.1122 953.749 67.4445C948.632 67.4113 943.481 67.7768 938.596 66.1485C938.995 44.2828 938.995 22.4171 938.596 0.584676Z" fill="#D4B483"/>
<path d="M1171.24 0.452168C1203.11 -0.411826 1235.05 0.252764 1266.95 0.119842C1307.85 0.219534 1348.79 0.0533951 1389.7 0.186317C1389.9 22.7166 1389.43 45.2469 1389.93 67.7772C1339.52 67.0461 1289.05 67.6775 1238.63 67.4449C1238.67 74.8885 1238.73 82.3322 1238.8 89.7758C1276.15 89.8755 1313.5 89.7094 1350.85 89.8091C1350.82 97.2859 1350.95 104.763 1351.29 112.24C1306.29 112.306 1261.3 112.273 1216.34 112.273C1216.4 89.7758 1215.84 67.2787 1216.64 44.8149C1267.18 44.8481 1317.76 45.4795 1368.27 44.4826C1368.27 37.1387 1368.27 29.7947 1368.3 22.484C1310.15 22.6169 1252.03 22.6501 1193.87 22.484C1194.01 74.523 1193.71 126.562 1194.01 178.601C1252.06 178.8 1310.11 178.8 1368.17 178.601C1368.3 171.191 1368.33 163.78 1368.3 156.37C1317.66 156.303 1266.98 156.37 1216.34 156.27C1216.24 148.793 1216.24 141.316 1216.37 133.84C1274.12 133.906 1331.88 133.806 1389.63 133.906C1390.13 156.071 1389.47 178.302 1390 200.5C1317.22 202.095 1244.32 200.766 1171.48 201.131C1171.24 134.238 1171.71 67.3452 1171.24 0.452168Z" fill="#D4B483"/>
</g>
</svg>
