<svg width="25" height="24" viewBox="0 0 25 24" fill="none" xmlns="http://www.w3.org/2000/svg">
<g id="Flaticon" clip-path="url(#clip0_700_357)">
<path id="Vector" d="M23.2275 10.9995H1.22754C0.675254 10.9995 0.227539 11.4472 0.227539 11.9995C0.227539 12.5518 0.675254 12.9995 1.22754 12.9995H23.2275C23.7798 12.9995 24.2275 12.5518 24.2275 11.9995C24.2275 11.4472 23.7798 10.9995 23.2275 10.9995Z" fill=""/>
<path id="Vector_2" d="M23.2275 4.00049H1.22754C0.675254 4.00049 0.227539 4.4482 0.227539 5.00049C0.227539 5.55277 0.675254 6.00048 1.22754 6.00048H23.2275C23.7798 6.00048 24.2275 5.55277 24.2275 5.00049C24.2275 4.4482 23.7798 4.00049 23.2275 4.00049Z" fill=""/>
<path id="Vector_3" d="M23.2275 18H1.22754C0.675254 18 0.227539 18.4477 0.227539 19C0.227539 19.5523 0.675254 20 1.22754 20H23.2275C23.7798 20 24.2275 19.5523 24.2275 19C24.2275 18.4477 23.7798 18 23.2275 18Z" fill=""/>
</g>
<defs>
<clipPath id="clip0_700_357">
<rect width="24" height="24" fill="" transform="translate(0.227539)"/>
</clipPath>
</defs>
</svg>
