<svg width="46" height="46" viewBox="0 0 46 46" fill="none" xmlns="http://www.w3.org/2000/svg">
<path d="M16 17.5C16 17.1022 16.158 16.7206 16.4393 16.4393C16.7206 16.158 17.1022 16 17.5 16H20.5C20.8978 16 21.2794 16.158 21.5607 16.4393C21.842 16.7206 22 17.1022 22 17.5V20.5C22 20.8978 21.842 21.2794 21.5607 21.5607C21.2794 21.842 20.8978 22 20.5 22H17.5C17.1022 22 16.7206 21.842 16.4393 21.5607C16.158 21.2794 16 20.8978 16 20.5V17.5ZM24 17.5C24 17.1022 24.158 16.7206 24.4393 16.4393C24.7206 16.158 25.1022 16 25.5 16H28.5C28.8978 16 29.2794 16.158 29.5607 16.4393C29.842 16.7206 30 17.1022 30 17.5V20.5C30 20.8978 29.842 21.2794 29.5607 21.5607C29.2794 21.842 28.8978 22 28.5 22H25.5C25.1022 22 24.7206 21.842 24.4393 21.5607C24.158 21.2794 24 20.8978 24 20.5V17.5ZM16 25.5C16 25.1022 16.158 24.7206 16.4393 24.4393C16.7206 24.158 17.1022 24 17.5 24H20.5C20.8978 24 21.2794 24.158 21.5607 24.4393C21.842 24.7206 22 25.1022 22 25.5V28.5C22 28.8978 21.842 29.2794 21.5607 29.5607C21.2794 29.842 20.8978 30 20.5 30H17.5C17.1022 30 16.7206 29.842 16.4393 29.5607C16.158 29.2794 16 28.8978 16 28.5V25.5ZM24 25.5C24 25.1022 24.158 24.7206 24.4393 24.4393C24.7206 24.158 25.1022 24 25.5 24H28.5C28.8978 24 29.2794 24.158 29.5607 24.4393C29.842 24.7206 30 25.1022 30 25.5V28.5C30 28.8978 29.842 29.2794 29.5607 29.5607C29.2794 29.842 28.8978 30 28.5 30H25.5C25.1022 30 24.7206 29.842 24.4393 29.5607C24.158 29.2794 24 28.8978 24 28.5V25.5Z" fill="#312921"/>
<rect x="0.5" y="0.5" width="45" height="45" rx="4.5" stroke="#ECECEC"/>
</svg>
