<svg width="46" height="46" viewBox="0 0 46 46" fill="none" xmlns="http://www.w3.org/2000/svg">
<path fill-rule="evenodd" clip-rule="evenodd" d="M19.5006 27.5009C19.5006 27.3683 19.5533 27.2411 19.6471 27.1473C19.7408 27.0536 19.868 27.0009 20.0006 27.0009H29.0006C29.1332 27.0009 29.2604 27.0536 29.3542 27.1473C29.448 27.2411 29.5006 27.3683 29.5006 27.5009C29.5006 27.6335 29.448 27.7607 29.3542 27.8544C29.2604 27.9482 29.1332 28.0009 29.0006 28.0009H20.0006C19.868 28.0009 19.7408 27.9482 19.6471 27.8544C19.5533 27.7607 19.5006 27.6335 19.5006 27.5009ZM19.5006 23.5009C19.5006 23.3683 19.5533 23.2411 19.6471 23.1473C19.7408 23.0536 19.868 23.0009 20.0006 23.0009H29.0006C29.1332 23.0009 29.2604 23.0536 29.3542 23.1473C29.448 23.2411 29.5006 23.3683 29.5006 23.5009C29.5006 23.6335 29.448 23.7607 29.3542 23.8544C29.2604 23.9482 29.1332 24.0009 29.0006 24.0009H20.0006C19.868 24.0009 19.7408 23.9482 19.6471 23.8544C19.5533 23.7607 19.5006 23.6335 19.5006 23.5009ZM19.5006 19.5009C19.5006 19.3683 19.5533 19.2411 19.6471 19.1473C19.7408 19.0536 19.868 19.0009 20.0006 19.0009H29.0006C29.1332 19.0009 29.2604 19.0536 29.3542 19.1473C29.448 19.2411 29.5006 19.3683 29.5006 19.5009C29.5006 19.6335 29.448 19.7607 29.3542 19.8544C29.2604 19.9482 29.1332 20.0009 29.0006 20.0009H20.0006C19.868 20.0009 19.7408 19.9482 19.6471 19.8544C19.5533 19.7607 19.5006 19.6335 19.5006 19.5009ZM18.3546 18.1469C18.4012 18.1933 18.4381 18.2485 18.4633 18.3093C18.4886 18.37 18.5015 18.4351 18.5015 18.5009C18.5015 18.5667 18.4886 18.6318 18.4633 18.6925C18.4381 18.7533 18.4012 18.8084 18.3546 18.8549L16.8546 20.3549C16.8082 20.4015 16.753 20.4384 16.6923 20.4636C16.6315 20.4888 16.5664 20.5018 16.5006 20.5018C16.4349 20.5018 16.3697 20.4888 16.309 20.4636C16.2483 20.4384 16.1931 20.4015 16.1466 20.3549L15.6466 19.8549C15.6001 19.8084 15.5633 19.7532 15.5381 19.6925C15.5129 19.6317 15.5 19.5666 15.5 19.5009C15.5 19.4351 15.5129 19.37 15.5381 19.3093C15.5633 19.2486 15.6001 19.1934 15.6466 19.1469C15.6931 19.1004 15.7483 19.0635 15.809 19.0384C15.8698 19.0132 15.9349 19.0003 16.0006 19.0003C16.0664 19.0003 16.1315 19.0132 16.1922 19.0384C16.253 19.0635 16.3081 19.1004 16.3546 19.1469L16.5006 19.2939L17.6466 18.1469C17.6931 18.1003 17.7483 18.0634 17.809 18.0382C17.8697 18.013 17.9349 18 18.0006 18C18.0664 18 18.1315 18.013 18.1923 18.0382C18.253 18.0634 18.3082 18.1003 18.3546 18.1469ZM18.3546 22.1469C18.4012 22.1933 18.4381 22.2485 18.4633 22.3093C18.4886 22.37 18.5015 22.4351 18.5015 22.5009C18.5015 22.5667 18.4886 22.6318 18.4633 22.6925C18.4381 22.7533 18.4012 22.8084 18.3546 22.8549L16.8546 24.3549C16.8082 24.4015 16.753 24.4384 16.6923 24.4636C16.6315 24.4888 16.5664 24.5018 16.5006 24.5018C16.4349 24.5018 16.3697 24.4888 16.309 24.4636C16.2483 24.4384 16.1931 24.4015 16.1466 24.3549L15.6466 23.8549C15.5527 23.761 15.5 23.6337 15.5 23.5009C15.5 23.3681 15.5527 23.2408 15.6466 23.1469C15.7405 23.053 15.8679 23.0003 16.0006 23.0003C16.1334 23.0003 16.2607 23.053 16.3546 23.1469L16.5006 23.2939L17.6466 22.1469C17.6931 22.1003 17.7483 22.0634 17.809 22.0382C17.8697 22.013 17.9349 22 18.0006 22C18.0664 22 18.1315 22.013 18.1923 22.0382C18.253 22.0634 18.3082 22.1003 18.3546 22.1469ZM18.3546 26.1469C18.4012 26.1933 18.4381 26.2485 18.4633 26.3093C18.4886 26.37 18.5015 26.4351 18.5015 26.5009C18.5015 26.5667 18.4886 26.6318 18.4633 26.6925C18.4381 26.7533 18.4012 26.8084 18.3546 26.8549L16.8546 28.3549C16.8082 28.4015 16.753 28.4384 16.6923 28.4636C16.6315 28.4888 16.5664 28.5018 16.5006 28.5018C16.4349 28.5018 16.3697 28.4888 16.309 28.4636C16.2483 28.4384 16.1931 28.4015 16.1466 28.3549L15.6466 27.8549C15.5527 27.761 15.5 27.6337 15.5 27.5009C15.5 27.3681 15.5527 27.2408 15.6466 27.1469C15.7405 27.053 15.8679 27.0003 16.0006 27.0003C16.1334 27.0003 16.2607 27.053 16.3546 27.1469L16.5006 27.2939L17.6466 26.1469C17.6931 26.1003 17.7483 26.0634 17.809 26.0382C17.8697 26.013 17.9349 26 18.0006 26C18.0664 26 18.1315 26.013 18.1923 26.0382C18.253 26.0634 18.3082 26.1003 18.3546 26.1469Z" fill="#B8B8B8"/>
<rect x="0.5" y="0.5" width="45" height="45" rx="4.5" stroke="#ECECEC"/>
</svg>
