<svg width="20" height="20" viewBox="0 0 20 20" fill="none" xmlns="http://www.w3.org/2000/svg">
<path d="M16.7619 7.22773C16.6094 7.08192 16.4027 7 16.187 7C15.9714 7 15.7646 7.08192 15.6122 7.22773L10.4951 12.1225L5.37803 7.22773C5.22467 7.08605 5.01927 7.00765 4.80607 7.00942C4.59287 7.01119 4.38892 7.093 4.23816 7.23721C4.0874 7.38142 4.00188 7.57651 4.00003 7.78045C3.99818 7.98439 4.08014 8.18087 4.22826 8.32756L9.92021 13.7723C10.0727 13.9181 10.2795 14 10.4951 14C10.7107 14 10.9175 13.9181 11.07 13.7723L16.7619 8.32756C16.9144 8.1817 17 7.9839 17 7.77765C17 7.5714 16.9144 7.3736 16.7619 7.22773Z" fill="#312921"/>
</svg>
