<svg width="20" height="20" viewBox="0 0 20 20" fill="none" xmlns="http://www.w3.org/2000/svg">
<path d="M3.23808 12.7723C3.39056 12.9181 3.59735 13 3.81296 13C4.02858 13 4.23536 12.9181 4.38785 12.7723L9.50491 7.87748L14.622 12.7723C14.7753 12.914 14.9807 12.9924 15.1939 12.9906C15.4071 12.9888 15.6111 12.907 15.7618 12.7628C15.9126 12.6186 15.9981 12.4235 16 12.2196C16.0018 12.0156 15.9199 11.8191 15.7717 11.6724L10.0798 6.22773C9.92731 6.08192 9.72052 6 9.50491 6C9.28929 6 9.08251 6.08192 8.93002 6.22773L3.23808 11.6724C3.08564 11.8183 3 12.0161 3 12.2224C3 12.4286 3.08564 12.6264 3.23808 12.7723Z" fill="#312921"/>
</svg>
