<svg width="40" height="40" viewBox="0 0 40 40" fill="none" xmlns="http://www.w3.org/2000/svg">
<path d="M6.4001 20C6.4001 12.48 12.4801 6.40002 20.0001 6.40002C27.5201 6.40002 33.6001 12.48 33.6001 20C33.6001 27.52 27.5201 33.6 20.0001 33.6C12.4801 33.6 6.4001 27.52 6.4001 20ZM32.0001 20C32.0001 13.36 26.6401 8.00002 20.0001 8.00002C13.3601 8.00002 8.0001 13.36 8.0001 20C8.0001 26.64 13.3601 32 20.0001 32C26.6401 32 32.0001 26.64 32.0001 20Z" fill="#312921"/>
<path d="M18.64 26.64L25.28 20L18.64 13.36L19.76 12.24L27.52 20L19.76 27.76L18.64 26.64Z" fill="#312921"/>
<path d="M26.3999 19.2L26.3999 20.8L12.7999 20.8L12.7999 19.2L26.3999 19.2Z" fill="#312921"/>
</svg>
