<svg width="38" height="38" viewBox="0 0 38 38" fill="none" xmlns="http://www.w3.org/2000/svg">
<path opacity="0.1" fill-rule="evenodd" clip-rule="evenodd" d="M19.124 36.3975C28.789 36.3975 36.624 28.5624 36.624 18.8975C36.624 9.23248 28.789 1.39746 19.124 1.39746C9.45904 1.39746 1.62402 9.23248 1.62402 18.8975C1.62402 28.5624 9.45904 36.3975 19.124 36.3975Z" stroke="#A27738" stroke-width="1.5"/>
<path d="M20.7172 14.418H22.3256C22.4736 14.418 22.5937 14.3048 22.5937 14.1654V12.6498C22.5937 12.5104 22.4736 12.3972 22.3256 12.3972H20.7172C19.0917 12.3972 17.7685 13.6435 17.7685 15.1758V16.944H15.8921C15.7441 16.944 15.624 17.0571 15.624 17.1966V18.7122C15.624 18.8516 15.7441 18.9648 15.8921 18.9648H17.7685V24.2693C17.7685 24.4088 17.8886 24.5219 18.0366 24.5219H19.645C19.7929 24.5219 19.913 24.4088 19.913 24.2693V18.9648H21.7895C21.9047 18.9648 22.0071 18.895 22.0441 18.792L22.5803 17.2764C22.6076 17.1996 22.5937 17.1147 22.5433 17.0486C22.4923 16.9829 22.4119 16.944 22.3256 16.944H19.913V15.1758C19.913 14.758 20.2738 14.418 20.7172 14.418Z" fill="#A27738"/>
</svg>
