<svg width="24" height="24" viewBox="0 0 24 24" fill="none" xmlns="http://www.w3.org/2000/svg">
<path d="M12 21L10.55 19.7248C8.86667 18.2371 7.475 16.9537 6.375 15.8747C5.275 14.7956 4.4 13.8268 3.75 12.9682C3.1 12.1102 2.646 11.3215 2.388 10.6022C2.13 9.88283 2.00067 9.14714 2 8.39509C2 6.85831 2.525 5.57493 3.575 4.54496C4.625 3.51499 5.93333 3 7.5 3C8.36667 3 9.19167 3.17984 9.975 3.53951C10.7583 3.89918 11.4333 4.40599 12 5.05995C12.5667 4.40599 13.2417 3.89918 14.025 3.53951C14.8083 3.17984 15.6333 3 16.5 3C18.0667 3 19.375 3.51499 20.425 4.54496C21.475 5.57493 22 6.85831 22 8.39509C22 9.14714 21.8707 9.88283 21.612 10.6022C21.3533 11.3215 20.8993 12.1102 20.25 12.9682C19.6 13.8268 18.725 14.7956 17.625 15.8747C16.525 16.9537 15.1333 18.2371 13.45 19.7248L12 21ZM12 18.3515C13.6 16.9455 14.9167 15.7396 15.95 14.7338C16.9833 13.7281 17.8 12.8537 18.4 12.1108C19 11.3666 19.4167 10.7042 19.65 10.1235C19.8833 9.54278 20 8.96665 20 8.39509C20 7.41417 19.6667 6.59673 19 5.94278C18.3333 5.28883 17.5 4.96185 16.5 4.96185C15.7167 4.96185 14.9917 5.17831 14.325 5.61123C13.6583 6.04414 13.2 6.59608 12.95 7.26703H11.05C10.8 6.59673 10.3417 6.0448 9.675 5.61123C9.00833 5.17766 8.28333 4.9612 7.5 4.96185C6.5 4.96185 5.66667 5.28883 5 5.94278C4.33333 6.59673 4 7.41417 4 8.39509C4 8.9673 4.11667 9.54376 4.35 10.1245C4.58333 10.7052 5 11.3673 5.6 12.1108C6.2 12.8544 7.01667 13.729 8.05 14.7348C9.08333 15.7406 10.4 16.9462 12 18.3515Z" fill="#312921"/>
</svg>
