<svg width="29" height="28" viewBox="0 0 29 28" fill="none" xmlns="http://www.w3.org/2000/svg">
<path d="M26.82 14.2917C26.82 13.3817 26.7383 12.5067 26.5867 11.6667H14.5V16.6309H21.4067C21.1092 18.235 20.205 19.5942 18.8458 20.5042V23.7242H22.9933C25.42 21.49 26.82 18.2 26.82 14.2917Z" fill="#4285F4"/>
<path d="M14.5 26.8334C17.965 26.8334 20.87 25.6842 22.9933 23.7242L18.8458 20.5042C17.6966 21.2742 16.2266 21.7292 14.5 21.7292C11.1574 21.7292 8.32828 19.4717 7.31912 16.4384H3.03162V19.7634C5.14328 23.9575 9.48328 26.8334 14.5 26.8334Z" fill="#34A853"/>
<path d="M7.31913 16.4384C7.06246 15.6684 6.91663 14.8459 6.91663 14C6.91663 13.1542 7.06246 12.3317 7.31913 11.5617V8.23669H3.03163C2.13329 10.025 1.66583 11.9987 1.66663 14C1.66663 16.0709 2.16246 18.0309 3.03163 19.7634L7.31913 16.4384Z" fill="#FBBC05"/>
<path d="M14.4999 6.27085C16.3841 6.27085 18.0758 6.91835 19.4058 8.19002L23.0866 4.50919C20.8641 2.43835 17.9591 1.16669 14.4999 1.16669C9.48328 1.16669 5.14328 4.04252 3.03162 8.23669L7.31912 11.5617C8.32828 8.52835 11.1574 6.27085 14.4999 6.27085Z" fill="#EA4335"/>
</svg>
