<svg width="16" height="16" viewBox="0 0 16 16" fill="none" xmlns="http://www.w3.org/2000/svg">
<path d="M6.5625 12H2.5C2.36739 12 2.24021 12.0527 2.14645 12.1464C2.05268 12.2402 2 12.3674 2 12.5C2 12.6326 2.05268 12.7598 2.14645 12.8535C2.24021 12.9473 2.36739 13 2.5 13H6.5625C6.67265 13.4302 6.92285 13.8115 7.27365 14.0838C7.62446 14.3561 8.05591 14.5039 8.5 14.5039C8.94409 14.5039 9.37554 14.3561 9.72635 14.0838C10.0771 13.8115 10.3273 13.4302 10.4375 13H13.5C13.6326 13 13.7598 12.9473 13.8536 12.8535C13.9473 12.7598 14 12.6326 14 12.5C14 12.3674 13.9473 12.2402 13.8536 12.1464C13.7598 12.0527 13.6326 12 13.5 12H10.4375C10.3273 11.5698 10.0771 11.1885 9.72635 10.9162C9.37554 10.6439 8.94409 10.4961 8.5 10.4961C8.05591 10.4961 7.62446 10.6439 7.27365 10.9162C6.92285 11.1885 6.67265 11.5698 6.5625 12ZM9.5 12.5C9.5 12.6978 9.44135 12.8911 9.33147 13.0556C9.22159 13.22 9.06541 13.3482 8.88268 13.4239C8.69996 13.4996 8.49889 13.5194 8.30491 13.4808C8.11093 13.4422 7.93275 13.3469 7.79289 13.2071C7.65304 13.0672 7.5578 12.8891 7.51921 12.6951C7.48063 12.5011 7.50043 12.3 7.57612 12.1173C7.65181 11.9346 7.77998 11.7784 7.94443 11.6685C8.10888 11.5586 8.30222 11.5 8.5 11.5C8.76522 11.5 9.01957 11.6053 9.20711 11.7929C9.39464 11.9804 9.5 12.2348 9.5 12.5ZM3.5625 7.49998H2.5C2.36739 7.49998 2.24021 7.55266 2.14645 7.64643C2.05268 7.7402 2 7.86738 2 7.99998C2 8.13259 2.05268 8.25977 2.14645 8.35354C2.24021 8.44731 2.36739 8.49998 2.5 8.49998H3.5625C3.67265 8.93019 3.92285 9.3115 4.27365 9.5838C4.62446 9.85611 5.05591 10.0039 5.5 10.0039C5.94409 10.0039 6.37554 9.85611 6.72635 9.5838C7.07715 9.3115 7.32735 8.93019 7.4375 8.49998H13.5C13.6326 8.49998 13.7598 8.44731 13.8536 8.35354C13.9473 8.25977 14 8.13259 14 7.99998C14 7.86738 13.9473 7.7402 13.8536 7.64643C13.7598 7.55266 13.6326 7.49998 13.5 7.49998L7.4375 7.49998C7.32735 7.06978 7.07715 6.68847 6.72635 6.41617C6.37554 6.14386 5.94409 5.99606 5.5 5.99606C5.05591 5.99606 4.62446 6.14386 4.27365 6.41617C3.92285 6.68847 3.67265 7.06978 3.5625 7.49998ZM6.5 7.99998C6.5 8.19777 6.44135 8.39111 6.33147 8.55555C6.22159 8.72 6.06541 8.84818 5.88268 8.92386C5.69996 8.99955 5.49889 9.01936 5.30491 8.98077C5.11093 8.94218 4.93275 8.84694 4.79289 8.70709C4.65304 8.56724 4.5578 8.38906 4.51921 8.19508C4.48063 8.00109 4.50043 7.80003 4.57612 7.6173C4.65181 7.43458 4.77998 7.2784 4.94443 7.16852C5.10888 7.05863 5.30222 6.99998 5.5 6.99998C5.76522 6.99998 6.01957 7.10534 6.20711 7.29288C6.39464 7.48041 6.5 7.73477 6.5 7.99998ZM10.5 1.49998C10.0566 1.5004 9.62586 1.64788 9.27525 1.91932C8.92464 2.19076 8.67397 2.57082 8.5625 2.99998H2.5C2.36739 2.99998 2.24021 3.05266 2.14645 3.14643C2.05268 3.2402 2 3.36738 2 3.49998C2 3.63259 2.05268 3.75977 2.14645 3.85354C2.24021 3.94731 2.36739 3.99998 2.5 3.99998H8.5625C8.67265 4.43019 8.92285 4.8115 9.27365 5.0838C9.62446 5.3561 10.0559 5.50391 10.5 5.50391C10.9441 5.50391 11.3755 5.3561 11.7263 5.0838C12.0771 4.8115 12.3273 4.43019 12.4375 3.99998H13.5C13.6326 3.99998 13.7598 3.94731 13.8536 3.85354C13.9473 3.75977 14 3.63259 14 3.49998C14 3.36738 13.9473 3.2402 13.8536 3.14643C13.7598 3.05266 13.6326 2.99998 13.5 2.99998H12.4375C12.326 2.57082 12.0754 2.19076 11.7247 1.91932C11.3741 1.64788 10.9434 1.5004 10.5 1.49998ZM11.5 3.49998C11.5 3.69777 11.4414 3.89111 11.3315 4.05556C11.2216 4.22 11.0654 4.34818 10.8827 4.42386C10.7 4.49955 10.4989 4.51936 10.3049 4.48077C10.1109 4.44218 9.93275 4.34694 9.79289 4.20709C9.65304 4.06724 9.5578 3.88906 9.51921 3.69508C9.48063 3.50109 9.50043 3.30003 9.57612 3.1173C9.65181 2.93458 9.77998 2.7784 9.94443 2.66852C10.1089 2.55863 10.3022 2.49998 10.5 2.49998C10.7652 2.49998 11.0196 2.60534 11.2071 2.79288C11.3946 2.98041 11.5 3.23477 11.5 3.49998Z" fill="black"/>
</svg>
