<svg width="16" height="16" viewBox="0 0 16 16" fill="none" xmlns="http://www.w3.org/2000/svg">
<g clip-path="url(#clip0_1277_979)">
<path d="M5.94019 5.22661L1.58466 5.84347L1.50752 5.85881C1.39074 5.88909 1.28428 5.94911 1.19901 6.03273C1.11374 6.11635 1.05272 6.22058 1.02217 6.33477C0.99163 6.44896 0.992658 6.56903 1.02515 6.68271C1.05765 6.79639 1.12045 6.8996 1.20714 6.98182L4.36251 9.98207L3.61838 14.22L3.6095 14.2934C3.60236 14.4114 3.62744 14.5291 3.68218 14.6345C3.73692 14.7399 3.81935 14.8292 3.92104 14.8933C4.02272 14.9573 4.14001 14.9938 4.26089 14.999C4.38176 15.0042 4.50189 14.978 4.60895 14.9229L8.50435 12.9223L12.3909 14.9229L12.4591 14.9536C12.5718 14.997 12.6943 15.0103 12.814 14.9921C12.9337 14.974 13.0462 14.9251 13.1402 14.8504C13.2341 14.7757 13.306 14.678 13.3486 14.5672C13.3911 14.4565 13.4027 14.3366 13.3821 14.22L12.6373 9.98207L15.7941 6.98115L15.8473 6.92447C15.9234 6.83295 15.9732 6.72337 15.9918 6.6069C16.0104 6.49043 15.9971 6.37122 15.9532 6.26142C15.9093 6.15162 15.8363 6.05515 15.7418 5.98185C15.6473 5.90855 15.5346 5.86103 15.4152 5.84413L11.0596 5.22661L9.11262 1.37209C9.05628 1.26042 8.96907 1.16637 8.86084 1.10061C8.75262 1.03485 8.62771 1 8.50026 1C8.3728 1 8.24789 1.03485 8.13967 1.10061C8.03144 1.16637 7.94423 1.26042 7.88789 1.37209L5.94019 5.22661Z" fill="#FFA500"/>
</g>
<defs>
<clipPath id="clip0_1277_979">
<rect width="16" height="16" fill="white"/>
</clipPath>
</defs>
</svg>
