<svg width="23" height="21" viewBox="0 0 23 21" fill="none" xmlns="http://www.w3.org/2000/svg">
<path d="M7.77913 6.58734L7.90924 6.56847L7.96743 6.45058L10.8204 0.670577L10.8205 0.670431C10.8824 0.544832 10.9782 0.439067 11.0971 0.365109C11.216 0.29115 11.3532 0.251953 11.4933 0.251953C11.6333 0.251953 11.7705 0.291151 11.8894 0.365108L12.0214 0.152827L11.8894 0.365109C12.0083 0.439067 12.1041 0.544832 12.166 0.67043L12.1661 0.670545L15.0181 6.45055L15.0762 6.56845L15.2063 6.58733L21.5863 7.51333L21.5864 7.51334C21.7176 7.53234 21.8415 7.58579 21.9453 7.66823L22.1007 7.47244L21.9453 7.66823C22.0491 7.75067 22.1292 7.85915 22.1775 7.98264L22.4103 7.89165L22.1775 7.98264C22.2257 8.10612 22.2404 8.24019 22.22 8.37119C22.1999 8.49987 22.1467 8.62106 22.0656 8.72286L21.9978 8.79669L17.3789 13.2918L17.2846 13.3835L17.3069 13.5132L18.3979 19.8682L18.3979 19.8683C18.4204 19.9994 18.4077 20.1342 18.361 20.2588C18.3143 20.3834 18.2353 20.4933 18.1321 20.5773C18.0289 20.6612 17.9052 20.7162 17.7737 20.7366C17.6443 20.7567 17.512 20.7426 17.3899 20.6957L17.3028 20.6556L11.6158 17.6588L11.4994 17.5974L11.3829 17.6586L5.67691 20.6586L5.67682 20.6587C5.55919 20.7206 5.42723 20.7501 5.29443 20.7443C5.16163 20.7384 5.03278 20.6974 4.92107 20.6253C4.80936 20.5533 4.71879 20.4529 4.65866 20.3343C4.59954 20.2178 4.57191 20.0879 4.57845 19.9575L4.58976 19.8617L5.67866 13.5132L5.70089 13.3835L5.60663 13.2918L0.984631 8.79278L0.9844 8.79255C0.889162 8.70009 0.820171 8.58401 0.78447 8.45616C0.74877 8.32831 0.74764 8.19328 0.781196 8.06485C0.814752 7.93642 0.881792 7.8192 0.975469 7.72515C1.06754 7.63272 1.18211 7.56593 1.30782 7.53133L1.40615 7.51132L7.77913 6.58734Z" fill="#FFA500" stroke="#B8B8B8" stroke-width="0.5"/>
</svg>
