<svg width="22" height="21" viewBox="0 0 22 21" fill="none" xmlns="http://www.w3.org/2000/svg">
<path d="M7.27913 6.58734L7.40924 6.56847L7.46743 6.45058L10.3204 0.670577L10.3205 0.67043C10.3824 0.544832 10.4782 0.439067 10.5971 0.365109C10.716 0.291151 10.8532 0.251953 10.9933 0.251953C11.1333 0.251953 11.2705 0.291151 11.3894 0.365109C11.5083 0.439067 11.6041 0.544832 11.666 0.67043L11.6661 0.670545L14.5181 6.45055L14.5762 6.56845L14.7063 6.58733L21.0863 7.51333L21.0864 7.51334C21.2176 7.53234 21.3415 7.58579 21.4453 7.66823C21.5491 7.75067 21.6292 7.85915 21.6775 7.98264C21.7257 8.10612 21.7404 8.24019 21.72 8.37119C21.6999 8.49987 21.6467 8.62107 21.5656 8.72287L21.4978 8.79669L16.8789 13.2918L16.7846 13.3835L16.8069 13.5132L17.8979 19.8682L17.8979 19.8683C17.9204 19.9994 17.9077 20.1342 17.861 20.2588C17.8143 20.3834 17.7353 20.4933 17.6321 20.5773C17.5289 20.6612 17.4052 20.7162 17.2737 20.7366C17.1443 20.7567 17.012 20.7426 16.8899 20.6957L16.8028 20.6556L11.1158 17.6588L10.9994 17.5974L10.8829 17.6586L5.17691 20.6586L5.17682 20.6587C5.05919 20.7206 4.92722 20.7501 4.79443 20.7443C4.66163 20.7384 4.53278 20.6974 4.42107 20.6253C4.30936 20.5533 4.21879 20.4529 4.15866 20.3343C4.09954 20.2178 4.07191 20.0879 4.07845 19.9575L4.08976 19.8617L5.17866 13.5132L5.20089 13.3835L5.10663 13.2918L0.484631 8.79278L0.4844 8.79255C0.389162 8.70009 0.320171 8.58401 0.28447 8.45616C0.24877 8.32831 0.24764 8.19328 0.281196 8.06485C0.314752 7.93642 0.381792 7.8192 0.475469 7.72515C0.567543 7.63272 0.682108 7.56593 0.807824 7.53133L0.906154 7.51132L7.27913 6.58734Z" fill="url(#paint0_linear_2015_944)" stroke="#B8B8B8" stroke-width="0.5"/>
<defs>
<linearGradient id="paint0_linear_2015_944" x1="14.0005" y1="16.4999" x2="-2.99951" y2="15.9999" gradientUnits="userSpaceOnUse">
<stop offset="0.9995" stop-color="#B8B8B8" stop-opacity="0.3"/>
<stop offset="0.9996" stop-color="#B8B8B8" stop-opacity="0.17"/>
<stop offset="0.9997" stop-color="#C6B493" stop-opacity="0.336"/>
<stop offset="0.9998" stop-color="#C7B491" stop-opacity="0.347383"/>
<stop offset="0.9999" stop-color="#C8B48F" stop-opacity="0.35477"/>
<stop offset="1" stop-color="#FFA500"/>
</linearGradient>
</defs>
</svg>
