<svg width="20" height="20" viewBox="0 0 20 20" fill="none" xmlns="http://www.w3.org/2000/svg">
<path fill-rule="evenodd" clip-rule="evenodd" d="M8.31 0.25H11.69C11.907 0.25 12.096 0.25 12.274 0.278C12.6207 0.333543 12.9496 0.469462 13.2344 0.674881C13.5192 0.880301 13.7519 1.14952 13.914 1.461C13.998 1.621 14.057 1.8 14.126 2.005L14.237 2.34C14.3136 2.61216 14.4802 2.85032 14.7096 3.0156C14.9389 3.18088 15.2176 3.26351 15.5 3.25H18.5C18.6989 3.25 18.8897 3.32902 19.0303 3.46967C19.171 3.61032 19.25 3.80109 19.25 4C19.25 4.19891 19.171 4.38968 19.0303 4.53033C18.8897 4.67098 18.6989 4.75 18.5 4.75H1.5C1.30109 4.75 1.11032 4.67098 0.96967 4.53033C0.829018 4.38968 0.75 4.19891 0.75 4C0.75 3.80109 0.829018 3.61032 0.96967 3.46967C1.11032 3.32902 1.30109 3.25 1.5 3.25H4.59C4.8571 3.24359 5.11513 3.15177 5.32623 2.988C5.53733 2.82423 5.6904 2.59713 5.763 2.34L5.875 2.005C5.943 1.8 6.002 1.621 6.085 1.461C6.24719 1.1494 6.48009 0.880102 6.76505 0.674675C7.05001 0.469248 7.37911 0.333397 7.726 0.278C7.904 0.25 8.093 0.25 8.309 0.25H8.31ZM7.008 3.25C7.07822 3.11249 7.13675 2.96932 7.183 2.822L7.283 2.522C7.374 2.249 7.395 2.194 7.416 2.154C7.46999 2.05001 7.54758 1.96011 7.64257 1.89152C7.73757 1.82292 7.84731 1.77754 7.963 1.759C8.09336 1.74799 8.22427 1.74498 8.355 1.75H11.645C11.933 1.75 11.993 1.752 12.037 1.76C12.1526 1.77843 12.2623 1.82366 12.3573 1.89208C12.4522 1.9605 12.5299 2.05019 12.584 2.154C12.605 2.194 12.626 2.249 12.717 2.523L12.817 2.823L12.856 2.935C12.895 3.045 12.941 3.149 12.992 3.25H7.008Z" fill="#EA1717"/>
<path d="M3.91517 6.44999C3.90191 6.25147 3.81034 6.06636 3.66059 5.93536C3.51084 5.80437 3.31519 5.73823 3.11667 5.75149C2.91816 5.76475 2.73304 5.85632 2.60205 6.00607C2.47105 6.15582 2.40491 6.35147 2.41817 6.54999L2.88217 13.502C2.96717 14.784 3.03617 15.82 3.19817 16.634C3.36717 17.479 3.65317 18.185 4.24517 18.738C4.83617 19.292 5.56017 19.531 6.41517 19.642C7.23717 19.75 8.27517 19.75 9.56117 19.75H10.4402C11.7252 19.75 12.7642 19.75 13.5862 19.642C14.4402 19.531 15.1642 19.292 15.7562 18.738C16.3472 18.185 16.6332 17.478 16.8022 16.634C16.9642 15.821 17.0322 14.784 17.1182 13.502L17.5822 6.54999C17.5954 6.35147 17.5293 6.15582 17.3983 6.00607C17.2673 5.85632 17.0822 5.76475 16.8837 5.75149C16.6852 5.73823 16.4895 5.80437 16.3398 5.93536C16.19 6.06636 16.0984 6.25147 16.0852 6.44999L15.6252 13.35C15.5352 14.697 15.4712 15.635 15.3312 16.34C15.1942 17.025 15.0042 17.387 14.7312 17.643C14.4572 17.899 14.0832 18.065 13.3912 18.155C12.6782 18.248 11.7382 18.25 10.3872 18.25H9.61317C8.26317 18.25 7.32317 18.248 6.60917 18.155C5.91717 18.065 5.54317 17.899 5.26917 17.643C4.99617 17.387 4.80617 17.025 4.66917 16.341C4.52917 15.635 4.46517 14.697 4.37517 13.349L3.91517 6.44999Z" fill="#EA1717"/>
<path d="M7.42474 8.25398C7.62258 8.23416 7.82019 8.2937 7.97415 8.41953C8.1281 8.54535 8.22579 8.72716 8.24574 8.92498L8.74574 13.925C8.76039 14.1201 8.69823 14.3132 8.57252 14.4631C8.44682 14.613 8.26752 14.7078 8.07287 14.7274C7.87822 14.7469 7.68363 14.6897 7.5306 14.5678C7.37757 14.4459 7.27822 14.2691 7.25374 14.075L6.75374 9.07498C6.73391 8.87715 6.79346 8.67953 6.91928 8.52558C7.04511 8.37163 7.22691 8.27394 7.42474 8.25398ZM12.5747 8.25398C12.7724 8.27394 12.954 8.37149 13.0798 8.52522C13.2056 8.67895 13.2653 8.87631 13.2457 9.07398L12.7457 14.074C12.7209 14.2677 12.6216 14.4441 12.4687 14.5657C12.3159 14.6873 12.1216 14.7445 11.9273 14.725C11.7329 14.7056 11.5538 14.6112 11.4281 14.4618C11.3023 14.3124 11.2397 14.1198 11.2537 13.925L11.7537 8.92498C11.7737 8.72735 11.8712 8.5457 12.025 8.41991C12.1787 8.29411 12.3771 8.23444 12.5747 8.25398Z" fill="#EA1717"/>
</svg>
