<svg width="142" height="38" viewBox="0 0 142 38" fill="none" xmlns="http://www.w3.org/2000/svg">
<path d="M12.2036 0.0159644C13.0999 -0.000820606 13.9996 -0.0343882 14.8859 0.123391C13.298 2.38937 12.1197 4.93062 10.6359 7.26374C8.66197 10.8826 6.45978 14.3907 4.553 18.0498C5.35197 18.0565 6.14757 18.0599 6.94318 18.0767C7.82943 17.0897 8.2222 15.7972 8.99431 14.7331C11.3039 10.5234 13.825 6.43792 16.138 2.22823C19.5957 8.28092 23.0602 14.3269 26.5984 20.3326C23.98 20.3091 21.3615 20.3359 18.7431 20.3191C17.5077 18.0733 16.1783 15.8778 14.8959 13.6588C14.9664 12.7592 15.8325 12.1515 16.1414 11.3324C17.464 13.5514 18.7833 15.7737 20.0187 18.0464C20.915 18.0599 21.8147 18.0632 22.7144 18.0498C20.4316 14.3369 18.2194 10.567 16.1582 6.72997C13.5666 11.2854 10.9548 15.814 8.3397 20.346C6.60413 20.299 4.86856 20.3292 3.13298 20.3191C2.32059 20.3225 1.5082 20.3292 0.695801 20.3326C0.863651 19.4597 1.56191 18.832 1.87411 18.0062C5.37546 12.0441 8.76939 6.01493 12.2036 0.0159644Z" fill="#A27738"/>
<path d="M24.2012 0.0154809C24.4261 0.0121239 24.8726 0.0121258 25.0941 0.0121258C27.0076 0.0188398 28.9177 0.0054132 30.8312 0.0188412C30.8413 3.14421 30.8111 6.27294 30.8413 9.39831C30.8212 11.9799 33.5672 14.2962 36.1152 13.5409C38.1629 13.1884 39.6098 11.1171 39.4822 9.08947C39.4554 6.07823 39.5057 3.067 39.4554 0.0591236C40.1872 0.00541157 40.919 -0.00466109 41.6542 0.0154809C41.6509 3.26842 41.6744 6.518 41.6442 9.77094C41.5334 12.9467 38.7672 15.7128 35.5982 15.8404C32.164 16.2063 28.911 13.2958 28.6995 9.88843C28.5753 7.35725 28.6995 4.81936 28.6391 2.28482C27.9174 2.27139 27.199 2.27139 26.4772 2.28482C26.4806 4.769 26.4168 7.25319 26.5074 9.73737C26.6014 13.8195 30.0188 17.5122 34.0741 17.952C36.0782 18.2272 38.1361 17.7136 39.8616 16.683C42.376 15.0582 43.9101 12.0671 43.843 9.08276C43.8329 6.06145 43.843 3.0435 43.8363 0.0255515C44.5916 0.00876652 45.3469 0.0054132 46.1056 0.0188412C46.0989 3.25164 46.1224 6.48779 46.0922 9.72058C45.9915 14.9642 41.6609 19.7177 36.4106 20.1978C32.3117 20.7584 28.0315 18.6334 25.8797 15.1254C24.8826 13.3864 24.2448 11.4427 24.2146 9.42517C24.1743 6.28972 24.2012 3.15092 24.2012 0.0154809Z" fill="#A27738"/>
<path d="M46.4856 0.00195312C48.3454 0.0288092 50.2052 -0.00476314 52.0683 0.0153789C52.9445 0.0153789 53.824 0.00866816 54.7002 0.0187392C56.1773 2.03966 57.5134 4.15793 58.9904 6.17549C56.2881 10.1368 53.4883 14.0376 50.8766 18.0593C51.7729 18.0694 52.6726 18.0694 53.5722 18.0425C54.8714 16.0585 56.2008 14.0947 57.5839 12.1677C58.93 14.1249 60.3903 16.0082 61.6324 18.0391C62.5287 18.066 63.4284 18.0694 64.3247 18.0559C62.6764 15.3334 60.7193 12.8156 58.9703 10.1569C60.7394 7.52836 62.5556 4.92668 64.365 2.32165C63.4452 2.26793 62.522 2.25786 61.6022 2.28136C61.2161 2.90576 60.7898 3.50667 60.4474 4.15457C59.8465 3.62752 59.4369 2.93598 59.0005 2.27465C59.447 1.48575 59.9673 0.747206 60.4977 0.0153789C63.2371 0.0120219 65.9764 0.0153789 68.7157 0.0153789C66.3188 3.3791 64.0192 6.81332 61.6593 10.2039C63.3915 12.4296 64.8518 14.85 66.5001 17.1361C67.1882 18.1936 68.0476 19.1503 68.5646 20.3118C67.5676 20.3286 66.5706 20.3152 65.5769 20.3186C63.8984 20.3353 62.2199 20.3085 60.5414 20.3387C59.5913 18.9053 58.554 17.5356 57.6174 16.0954C56.4928 17.4349 55.8046 19.2107 54.4484 20.2984C51.793 20.3588 49.1309 20.3018 46.4722 20.3219C49.7419 15.612 53.0385 10.9156 56.2075 6.14191C55.385 4.86625 54.4887 3.64095 53.636 2.38543C52.6994 2.1538 51.7091 2.34178 50.7557 2.25115C51.7225 3.49324 52.4946 4.87632 53.4816 6.10499C53.0821 6.79317 52.6692 7.48472 52.0985 8.0487C50.1649 5.41345 48.3924 2.6607 46.4856 0.00195312Z" fill="#A27738"/>
<path d="M71.2026 0.0154534C73.3477 0.0255244 75.4962 -0.00804419 77.6447 0.0221689C77.9267 3.19118 77.5977 6.52133 77.8025 9.74741C78.0005 12.2182 80.619 14.2122 83.0528 13.5543C85.1342 13.2085 86.5072 11.0969 86.4736 9.07266C86.4703 6.65226 86.4703 4.23185 86.4703 1.81481C86.4703 1.21726 86.4736 0.623074 86.4703 0.0288843C87.1954 0.0120993 87.9238 0.0087394 88.6523 0.0154534C88.6523 3.04012 88.6657 6.06813 88.649 9.09615C88.6355 10.3282 88.33 11.5333 87.7459 12.6177C86.2588 15.2428 82.8078 16.5621 79.961 15.5013C77.5541 14.6822 75.7782 12.3357 75.6271 9.80113C75.4861 7.2968 75.6003 4.78911 75.5633 2.28143C74.8315 2.28143 74.1031 2.26801 73.3746 2.24786C73.435 4.96704 73.2437 7.69292 73.5021 10.402C73.9486 14.3364 77.3392 17.6632 81.287 17.9956C84.4191 18.3078 87.6821 16.7938 89.364 14.1182C90.5557 12.3491 90.8511 10.157 90.8444 8.06891C90.8209 5.40009 90.8679 2.73127 90.8176 0.0658116C91.5763 -0.00132854 92.3383 -0.00132833 93.097 0.0188137C92.9459 4.10429 93.4965 8.26026 92.6471 12.2887C91.9422 14.9508 90.1059 17.1966 87.8164 18.6737C83.8652 21.1579 78.2892 20.7114 74.8752 17.5055C72.4682 15.4342 71.1388 12.235 71.1992 9.07601C71.2026 6.05471 71.1925 3.03676 71.2026 0.0154534Z" fill="#A27738"/>
<path d="M95.5146 0.0591581C101.064 -0.0348381 106.636 0.022229 112.196 0.025586C114.824 0.042371 117.238 2.12707 117.627 4.72204C118.08 7.28343 116.496 10.0093 114.086 10.9459C111.598 11.6878 108.986 11.1809 106.442 11.2548C103.561 11.3018 100.674 11.1675 97.7974 11.3219C97.8142 13.5644 97.7806 15.8035 97.8142 18.046C98.5628 18.0628 99.3148 18.0661 100.067 18.0628C100.077 16.5488 100.06 15.0348 100.077 13.5241C102.934 13.5375 105.79 13.4973 108.647 13.5442C109.507 15.0616 110.373 16.5756 111.323 18.0393C112.142 18.0628 112.964 18.0661 113.787 18.0527C113.052 16.5118 112.105 15.0851 111.299 13.5845C112.172 13.4972 113.055 13.4838 113.928 13.5745C115.12 15.8639 116.486 18.0594 117.782 20.2952C115.153 20.3623 112.525 20.2918 109.893 20.3321C109.168 18.751 108.191 17.3108 107.355 15.7901C105.653 15.7934 103.951 15.7834 102.252 15.7934C102.245 17.2772 102.256 18.7644 102.249 20.2482C102.165 20.2717 101.997 20.3187 101.913 20.3388C99.7881 20.3086 97.6631 20.3355 95.5415 20.3187C95.5281 18.6268 95.5415 16.9348 95.5314 15.2429C95.5482 13.1515 95.5381 11.0634 95.5348 8.97201C100.97 8.95858 106.398 9.13315 111.833 9.06265C113.407 9.07272 115.026 8.00519 115.301 6.39047C115.885 4.43334 114.21 2.26135 112.169 2.31507C107.382 2.22107 102.591 2.31507 97.8008 2.26807C97.8008 3.03347 97.8008 3.80222 97.7907 4.56762C102.662 4.51726 107.536 4.55419 112.407 4.54747C112.585 4.70861 112.938 5.03088 113.112 5.19202C113.173 5.89363 112.974 6.70939 112.139 6.77988C107.11 6.85374 102.074 6.77988 97.0454 6.81345C96.5285 6.81009 96.0081 6.84702 95.5146 6.68253C95.5549 4.47362 95.5549 2.26471 95.5146 0.0591581Z" fill="#A27738"/>
<path d="M119.017 0.0456787C122.236 -0.0416034 125.463 0.0255347 128.685 0.0121066C132.818 0.0221777 136.954 0.00539406 141.086 0.0188221C141.106 2.29487 141.059 4.57092 141.11 6.84697C136.017 6.77312 130.918 6.8369 125.825 6.8134C125.828 7.56537 125.835 8.31734 125.842 9.06931C129.615 9.07938 133.388 9.0626 137.162 9.07267C137.158 9.82799 137.172 10.5833 137.205 11.3386C132.66 11.3454 128.115 11.342 123.573 11.342C123.579 9.06931 123.522 6.79661 123.603 4.52728C128.709 4.53063 133.818 4.59442 138.921 4.49371C138.921 3.75181 138.921 3.00991 138.924 2.27137C133.049 2.2848 127.178 2.28815 121.303 2.27137C121.317 7.52844 121.286 12.7855 121.317 18.0426C127.181 18.0627 133.046 18.0627 138.911 18.0426C138.924 17.294 138.927 16.5454 138.924 15.7967C133.808 15.79 128.689 15.7967 123.573 15.7867C123.562 15.0314 123.562 14.276 123.576 13.5207C129.41 13.5274 135.245 13.5173 141.079 13.5274C141.13 15.7665 141.063 18.0124 141.116 20.2549C133.764 20.416 126.399 20.2817 119.041 20.3186C119.017 13.561 119.064 6.80333 119.017 0.0456787Z" fill="#A27738"/>
<path d="M17.6153 36.4026V30.5431H18.3249V35.7731H21.0486V36.4026H17.6153ZM27.6442 30.5431H28.3538V34.4227C28.3538 34.8233 28.2593 35.1809 28.0705 35.4956C27.8836 35.8084 27.6194 36.0554 27.278 36.2366C26.9366 36.4159 26.536 36.5056 26.0763 36.5056C25.6167 36.5056 25.2161 36.4159 24.8747 36.2366C24.5333 36.0554 24.2681 35.8084 24.0793 35.4956C23.8924 35.1809 23.7989 34.8233 23.7989 34.4227V30.5431H24.5085V34.3655C24.5085 34.6516 24.5714 34.9062 24.6973 35.1294C24.8232 35.3507 25.0025 35.5252 25.2352 35.653C25.4698 35.7789 25.7502 35.8418 26.0763 35.8418C26.4025 35.8418 26.6829 35.7789 26.9175 35.653C27.1521 35.5252 27.3314 35.3507 27.4554 35.1294C27.5813 34.9062 27.6442 34.6516 27.6442 34.3655V30.5431ZM31.7657 30.5431L33.2763 32.9807H33.3221L34.8328 30.5431H35.6682L33.8257 33.4728L35.6682 36.4026H34.8328L33.3221 34.0107H33.2763L31.7657 36.4026H30.9302L32.8186 33.4728L30.9302 30.5431H31.7657ZM42.0886 30.5431H42.7981V34.4227C42.7981 34.8233 42.7037 35.1809 42.5149 35.4956C42.3279 35.8084 42.0638 36.0554 41.7223 36.2366C41.3809 36.4159 40.9804 36.5056 40.5207 36.5056C40.061 36.5056 39.6605 36.4159 39.319 36.2366C38.9776 36.0554 38.7125 35.8084 38.5237 35.4956C38.3367 35.1809 38.2433 34.8233 38.2433 34.4227V30.5431H38.9528V34.3655C38.9528 34.6516 39.0158 34.9062 39.1416 35.1294C39.2675 35.3507 39.4468 35.5252 39.6795 35.653C39.9141 35.7789 40.1945 35.8418 40.5207 35.8418C40.8469 35.8418 41.1272 35.7789 41.3618 35.653C41.5965 35.5252 41.7757 35.3507 41.8997 35.1294C42.0256 34.9062 42.0886 34.6516 42.0886 34.3655V30.5431ZM45.8667 36.4026V30.5431H47.8466C48.3044 30.5431 48.6801 30.6213 48.9738 30.7777C49.2676 30.9322 49.485 31.1449 49.6262 31.4157C49.7673 31.6866 49.8379 31.9946 49.8379 32.3398C49.8379 32.6851 49.7673 32.9912 49.6262 33.2583C49.485 33.5253 49.2685 33.7351 48.9767 33.8877C48.6849 34.0384 48.312 34.1137 47.858 34.1137H46.2558V33.4728H47.8351C48.1479 33.4728 48.3997 33.4271 48.5905 33.3355C48.7831 33.244 48.9223 33.1142 49.0082 32.9464C49.0959 32.7766 49.1398 32.5745 49.1398 32.3398C49.1398 32.1052 49.0959 31.9002 49.0082 31.7247C48.9204 31.5492 48.7802 31.4138 48.5876 31.3184C48.395 31.2212 48.1403 31.1725 47.8237 31.1725H46.5763V36.4026H45.8667ZM48.6248 33.7704L50.0668 36.4026H49.2428L47.8237 33.7704H48.6248ZM51.9716 30.5431H52.7842L54.4093 33.2783H54.4779L56.103 30.5431H56.9156L54.7984 33.9878V36.4026H54.0888V33.9878L51.9716 30.5431ZM63.4025 36.4026V30.5431H66.916V31.1725H64.1121V33.1524H66.6527V33.7818H64.1121V36.4026H63.4025ZM69.7828 36.4026V30.5431H71.7627C72.2205 30.5431 72.5962 30.6213 72.89 30.7777C73.1837 30.9322 73.4012 31.1449 73.5423 31.4157C73.6835 31.6866 73.754 31.9946 73.754 32.3398C73.754 32.6851 73.6835 32.9912 73.5423 33.2583C73.4012 33.5253 73.1847 33.7351 72.8928 33.8877C72.601 34.0384 72.2281 34.1137 71.7742 34.1137H70.172V33.4728H71.7513C72.0641 33.4728 72.3159 33.4271 72.5066 33.3355C72.6992 33.244 72.8385 33.1142 72.9243 32.9464C73.0121 32.7766 73.0559 32.5745 73.0559 32.3398C73.0559 32.1052 73.0121 31.9002 72.9243 31.7247C72.8366 31.5492 72.6964 31.4138 72.5037 31.3184C72.3111 31.2212 72.0565 31.1725 71.7398 31.1725H70.4924V36.4026H69.7828ZM72.5409 33.7704L73.9829 36.4026H73.1589L71.7398 33.7704H72.5409ZM76.8284 36.4026H76.0845L78.236 30.5431H78.9684L81.12 36.4026H80.3761L78.6251 31.4701H78.5793L76.8284 36.4026ZM77.103 34.1137H80.1014V34.7432H77.103V34.1137ZM87.4144 32.3742C87.3515 32.1815 87.2685 32.0089 87.1655 31.8563C87.0644 31.7018 86.9433 31.5702 86.8022 31.4615C86.6629 31.3528 86.5046 31.2698 86.3272 31.2126C86.1498 31.1554 85.9553 31.1267 85.7436 31.1267C85.3964 31.1267 85.0808 31.2164 84.7966 31.3957C84.5124 31.575 84.2863 31.8392 84.1185 32.1882C83.9506 32.5373 83.8667 32.9655 83.8667 33.4728C83.8667 33.9802 83.9516 34.4084 84.1213 34.7575C84.2911 35.1065 84.5209 35.3707 84.8109 35.55C85.1008 35.7293 85.4269 35.8189 85.7893 35.8189C86.125 35.8189 86.4207 35.7474 86.6763 35.6043C86.9338 35.4594 87.1341 35.2553 87.2771 34.9921C87.4221 34.7269 87.4946 34.4151 87.4946 34.0565L87.712 34.1023H85.9496V33.4728H88.1812V34.1023C88.1812 34.5848 88.0782 35.0045 87.8722 35.3612C87.6681 35.7178 87.3858 35.9944 87.0253 36.1909C86.6667 36.3854 86.2548 36.4827 85.7893 36.4827C85.2705 36.4827 84.8147 36.3606 84.4218 36.1165C84.0307 35.8723 83.7256 35.5252 83.5062 35.075C83.2888 34.6249 83.18 34.0908 83.18 33.4728C83.18 33.0093 83.242 32.5926 83.366 32.2225C83.4919 31.8506 83.6693 31.534 83.8982 31.2727C84.1271 31.0114 84.3979 30.8111 84.7107 30.6718C85.0235 30.5326 85.3678 30.463 85.7436 30.463C86.0526 30.463 86.3406 30.5097 86.6076 30.6032C86.8766 30.6947 87.1159 30.8254 87.3258 30.9951C87.5375 31.163 87.7139 31.3642 87.8551 31.5988C87.9962 31.8315 88.0935 32.09 88.1469 32.3742H87.4144ZM91.0481 36.4026V30.5431H93.028C93.4858 30.5431 93.8615 30.6213 94.1552 30.7777C94.449 30.9322 94.6664 31.1449 94.8076 31.4157C94.9487 31.6866 95.0193 31.9946 95.0193 32.3398C95.0193 32.6851 94.9487 32.9912 94.8076 33.2583C94.6664 33.5253 94.4499 33.7351 94.1581 33.8877C93.8663 34.0384 93.4934 34.1137 93.0394 34.1137H91.4372V33.4728H93.0165C93.3293 33.4728 93.5811 33.4271 93.7719 33.3355C93.9645 33.244 94.1037 33.1142 94.1896 32.9464C94.2773 32.7766 94.3212 32.5745 94.3212 32.3398C94.3212 32.1052 94.2773 31.9002 94.1896 31.7247C94.1018 31.5492 93.9616 31.4138 93.769 31.3184C93.5764 31.2212 93.3217 31.1725 93.0051 31.1725H91.7577V36.4026H91.0481ZM93.8062 33.7704L95.2482 36.4026H94.4242L93.0051 33.7704H93.8062ZM98.0936 36.4026H97.3497L99.5013 30.5431H100.234L102.385 36.4026H101.641L99.8904 31.4701H99.8446L98.0936 36.4026ZM98.3683 34.1137H101.367V34.7432H98.3683V34.1137ZM109.596 30.5431V36.4026H108.909L105.716 31.802H105.659V36.4026H104.95V30.5431H105.636L108.841 35.1552H108.898V30.5431H109.596ZM117.383 32.3742H116.673C116.631 32.1701 116.558 31.9908 116.453 31.8363C116.35 31.6818 116.224 31.5521 116.075 31.4472C115.928 31.3404 115.765 31.2603 115.586 31.2069C115.406 31.1535 115.22 31.1267 115.025 31.1267C114.67 31.1267 114.349 31.2164 114.061 31.3957C113.775 31.575 113.547 31.8392 113.377 32.1882C113.209 32.5373 113.125 32.9655 113.125 33.4728C113.125 33.9802 113.209 34.4084 113.377 34.7575C113.547 35.1065 113.775 35.3707 114.061 35.55C114.349 35.7293 114.67 35.8189 115.025 35.8189C115.22 35.8189 115.406 35.7922 115.586 35.7388C115.765 35.6854 115.928 35.6063 116.075 35.5013C116.224 35.3945 116.35 35.2639 116.453 35.1094C116.558 34.953 116.631 34.7737 116.673 34.5715H117.383C117.329 34.871 117.232 35.1389 117.091 35.3755C116.95 35.612 116.774 35.8132 116.564 35.9791C116.354 36.1432 116.119 36.2681 115.858 36.3539C115.598 36.4398 115.321 36.4827 115.025 36.4827C114.525 36.4827 114.081 36.3606 113.692 36.1165C113.303 35.8723 112.996 35.5252 112.773 35.075C112.55 34.6249 112.439 34.0908 112.439 33.4728C112.439 32.8548 112.55 32.3208 112.773 31.8706C112.996 31.4205 113.303 31.0733 113.692 30.8292C114.081 30.5851 114.525 30.463 115.025 30.463C115.321 30.463 115.598 30.5059 115.858 30.5917C116.119 30.6776 116.354 30.8034 116.564 30.9694C116.774 31.1334 116.95 31.3337 117.091 31.5702C117.232 31.8048 117.329 32.0728 117.383 32.3742ZM120.181 36.4026V30.5431H123.717V31.1725H120.89V33.1524H123.534V33.7818H120.89V35.7731H123.763V36.4026H120.181Z" fill="url(#paint0_linear_133_148)"/>
<defs>
<linearGradient id="paint0_linear_133_148" x1="70.9058" y1="28.4026" x2="70.9058" y2="38.4026" gradientUnits="userSpaceOnUse">
<stop stop-color="#997264"/>
<stop offset="0.463542" stop-color="#E8C1B3"/>
<stop offset="0.989583" stop-color="#A37E72"/>
</linearGradient>
</defs>
</svg>
