<svg width="28" height="27" viewBox="0 0 28 27" fill="none" xmlns="http://www.w3.org/2000/svg">
<rect x="0.5" width="27" height="26.128" rx="13.064" fill="white"/>
<path d="M8.22719 3.43916C8.19866 3.43889 8.17052 3.44573 8.14529 3.45906C8.12006 3.47238 8.09855 3.49177 8.08269 3.51548C8.06682 3.53919 8.05711 3.56648 8.05441 3.59488C8.05172 3.62328 8.05614 3.65191 8.06727 3.67818L8.16614 3.91161L9.91581 7.99131C9.9277 8.01905 9.94669 8.04318 9.97086 8.06127C9.99504 8.07935 10.0235 8.09075 10.0535 8.09433C10.0835 8.0979 10.1139 8.09352 10.1416 8.08162C10.1694 8.06972 10.1935 8.05073 10.2116 8.02656L13.4409 3.71429C13.4601 3.68874 13.4718 3.65836 13.4746 3.62656C13.4775 3.59475 13.4715 3.56277 13.4572 3.53421C13.4429 3.50565 13.4209 3.48163 13.3938 3.46484C13.3666 3.44805 13.3353 3.43916 13.3034 3.43916H8.22719ZM21.0471 4.55946L19.2725 8.70235C19.2613 8.72851 19.2568 8.75702 19.2594 8.78534C19.2619 8.81366 19.2715 8.84091 19.2872 8.86464C19.3028 8.88836 19.3241 8.90783 19.3492 8.9213C19.3742 8.93477 19.4022 8.94181 19.4307 8.9418H23.7726C23.8033 8.94182 23.8334 8.93363 23.8598 8.9181C23.8862 8.90257 23.908 8.88025 23.9229 8.85346C23.9378 8.82667 23.9453 8.79638 23.9446 8.76573C23.9438 8.73508 23.9349 8.70518 23.9188 8.67914L21.351 4.53668C21.3344 4.51001 21.3108 4.48839 21.2828 4.47417C21.2548 4.45995 21.2235 4.45368 21.1921 4.45603C21.1608 4.45838 21.1307 4.46926 21.1052 4.48749C21.0796 4.50572 21.0595 4.53061 21.0471 4.55946ZM6.64862 4.5384L4.08172 8.67914C4.06554 8.70518 4.05663 8.73508 4.0559 8.76573C4.05516 8.79638 4.06264 8.82667 4.07754 8.85346C4.09245 8.88025 4.11425 8.90257 4.14068 8.9181C4.16712 8.93363 4.19722 8.94182 4.22788 8.9418H8.56981C8.59827 8.94177 8.62627 8.93468 8.65131 8.92115C8.67635 8.90763 8.69764 8.88811 8.71328 8.86434C8.72892 8.84056 8.73841 8.81328 8.74091 8.78493C8.7434 8.75659 8.73883 8.72806 8.72758 8.70192L6.94954 4.56118C6.93683 4.53305 6.91677 4.50887 6.89149 4.49116C6.8662 4.47345 6.83662 4.46288 6.80584 4.46055C6.77505 4.45822 6.74422 4.46422 6.71655 4.47792C6.68889 4.49161 6.66542 4.5125 6.64862 4.5384ZM19.901 3.43916H14.5079C14.4924 3.43905 14.4771 3.44331 14.4638 3.45144C14.4506 3.45957 14.4398 3.47125 14.4329 3.48516C14.4259 3.49907 14.4229 3.51465 14.4244 3.53015C14.4258 3.54565 14.4315 3.56044 14.4409 3.57285L17.8766 8.14951C17.8854 8.16126 17.8971 8.1705 17.9106 8.17628C17.924 8.18207 17.9388 8.1842 17.9534 8.18245C17.9679 8.18071 17.9818 8.17515 17.9935 8.16635C18.0052 8.15755 18.0144 8.14581 18.0202 8.13231L19.8292 3.91204L19.9753 3.55351C19.9805 3.5412 19.9826 3.52783 19.9814 3.51454C19.9803 3.50125 19.9759 3.48843 19.9688 3.47719C19.9616 3.46595 19.9518 3.45662 19.9402 3.44999C19.9286 3.44337 19.9156 3.43965 19.9023 3.43916H19.901ZM13.269 21.3228L9.42444 10.4254C9.41316 10.3937 9.39234 10.3664 9.36485 10.347C9.33737 10.3277 9.30457 10.3174 9.27097 10.3175H4.09934C4.06938 10.3174 4.04 10.3257 4.01455 10.3415C3.9891 10.3573 3.96859 10.3799 3.95537 10.4068C3.94215 10.4337 3.93675 10.4638 3.93979 10.4936C3.94282 10.5234 3.95416 10.5517 3.97252 10.5754L13.2582 22.6043C13.2897 22.645 13.3345 22.6732 13.3848 22.684C13.4351 22.6948 13.4876 22.6874 13.5329 22.6632C13.5786 22.6392 13.614 22.5996 13.6329 22.5516C13.6518 22.5036 13.6528 22.4504 13.6357 22.4018L13.269 21.3228ZM23.9003 10.3175H18.7286C18.6952 10.3175 18.6626 10.3278 18.6354 10.3472C18.6081 10.3665 18.5875 10.3938 18.5765 10.4254L14.3549 22.3833C14.3372 22.4335 14.3379 22.4884 14.357 22.5381C14.376 22.5878 14.4122 22.6291 14.4589 22.6546C14.5057 22.6799 14.5599 22.6878 14.612 22.6769C14.664 22.6659 14.7105 22.6368 14.7431 22.5948L24.0271 10.5754C24.0455 10.5517 24.0568 10.5234 24.0598 10.4936C24.0629 10.4638 24.0575 10.4337 24.0442 10.4068C24.031 10.3799 24.0105 10.3573 23.9851 10.3415C23.9596 10.3257 23.9302 10.3174 23.9003 10.3175ZM14.1374 5.45665L16.5448 8.66667C16.5639 8.69222 16.5756 8.7226 16.5785 8.7544C16.5813 8.78621 16.5753 8.81818 16.561 8.84675C16.5467 8.87531 16.5248 8.89933 16.4976 8.91612C16.4705 8.93291 16.4392 8.9418 16.4072 8.9418H11.5924C11.5605 8.9418 11.5292 8.93291 11.502 8.91612C11.4748 8.89933 11.4529 8.87531 11.4386 8.84675C11.4243 8.81818 11.4183 8.78621 11.4211 8.7544C11.424 8.7226 11.4357 8.69222 11.4548 8.66667L13.8622 5.45665C13.8783 5.43529 13.899 5.41796 13.9229 5.40602C13.9468 5.39408 13.9731 5.38787 13.9998 5.38787C14.0265 5.38787 14.0528 5.39408 14.0767 5.40602C14.1006 5.41796 14.1214 5.43529 14.1374 5.45665ZM13.8364 18.7967L10.9261 10.5466C10.9169 10.5207 10.9141 10.4929 10.9179 10.4657C10.9217 10.4385 10.932 10.4126 10.9478 10.3901C10.9637 10.3677 10.9847 10.3494 11.0092 10.3367C11.0336 10.3241 11.0606 10.3175 11.0881 10.3175H16.9115C16.939 10.3175 16.9661 10.3241 16.9905 10.3367C17.0149 10.3494 17.0359 10.3677 17.0518 10.3901C17.0676 10.4126 17.0779 10.4385 17.0817 10.4657C17.0855 10.4929 17.0827 10.5207 17.0736 10.5466L14.1619 18.7967C14.15 18.8302 14.128 18.8592 14.099 18.8797C14.07 18.9002 14.0353 18.9112 13.9998 18.9112C13.9643 18.9112 13.9296 18.9002 13.9006 18.8797C13.8716 18.8592 13.8496 18.8302 13.8377 18.7967H13.8364Z" fill="#312921"/>
</svg>
