<svg width="38" height="38" viewBox="0 0 38 38" fill="none" xmlns="http://www.w3.org/2000/svg">
<path opacity="0.1" fill-rule="evenodd" clip-rule="evenodd" d="M19.124 36.3975C28.789 36.3975 36.624 28.5624 36.624 18.8975C36.624 9.23248 28.789 1.39746 19.124 1.39746C9.45904 1.39746 1.62402 9.23248 1.62402 18.8975C1.62402 28.5624 9.45904 36.3975 19.124 36.3975Z" stroke="#A27738" stroke-width="1.5"/>
<path d="M15.1076 15.3646C15.9269 15.3646 16.5911 14.7004 16.5911 13.881C16.5911 13.0617 15.9269 12.3975 15.1076 12.3975C14.2882 12.3975 13.624 13.0617 13.624 13.881C13.624 14.7004 14.2882 15.3646 15.1076 15.3646Z" fill="#A27738"/>
<path d="M16.3439 16.3555H13.8713C13.7348 16.3555 13.624 16.4662 13.624 16.6027V24.0205C13.624 24.157 13.7348 24.2677 13.8713 24.2677H16.3439C16.4804 24.2677 16.5911 24.157 16.5911 24.0205V16.6027C16.5911 16.4662 16.4804 16.3555 16.3439 16.3555Z" fill="#A27738"/>
<path d="M23.7121 15.9441C22.6553 15.5821 21.3334 15.9001 20.5407 16.4703C20.5135 16.364 20.4166 16.2848 20.3014 16.2848H17.8288C17.6923 16.2848 17.5815 16.3956 17.5815 16.5321V23.9498C17.5815 24.0863 17.6923 24.1971 17.8288 24.1971H20.3014C20.4379 24.1971 20.5486 24.0863 20.5486 23.9498V18.6189C20.9482 18.2748 21.463 18.165 21.8843 18.344C22.2928 18.5166 22.5267 18.9379 22.5267 19.4992V23.9498C22.5267 24.0863 22.6375 24.1971 22.774 24.1971H25.2466C25.383 24.1971 25.4938 24.0863 25.4938 23.9498V19.0012C25.4656 16.9692 24.5097 16.2171 23.7121 15.9441Z" fill="#A27738"/>
</svg>
