<svg width="111" height="16" viewBox="0 0 111 16" fill="none" xmlns="http://www.w3.org/2000/svg">
<path d="M9.04982 0.0124579C9.75469 -0.000741919 10.4622 -0.0271397 11.1592 0.096939C9.91045 1.87892 8.98382 3.87738 7.81696 5.71216C6.26465 8.55805 4.53283 11.3168 3.03333 14.1944C3.66164 14.1997 4.28731 14.2023 4.91299 14.2155C5.60994 13.4394 5.91882 12.423 6.52601 11.5861C8.34231 8.27557 10.3249 5.06273 12.1439 1.7522C14.863 6.51207 17.5875 11.2667 20.37 15.9896C18.3108 15.9711 16.2517 15.9922 14.1925 15.979C13.221 14.2129 12.1755 12.4863 11.1671 10.7413C11.2225 10.0338 11.9036 9.55596 12.1465 8.91181C13.1867 10.6568 14.2242 12.4045 15.1957 14.1917C15.9005 14.2023 16.6081 14.2049 17.3156 14.1944C15.5204 11.2746 13.7807 8.30989 12.1597 5.2924C10.1216 8.87484 8.06775 12.4362 6.01122 16.0001C4.64635 15.9632 3.28148 15.9869 1.91662 15.979C1.27775 15.9817 0.638873 15.9869 0 15.9896C0.131999 15.3032 0.681111 14.8095 0.926629 14.1601C3.68012 9.47148 6.34913 4.73009 9.04982 0.0124579Z" fill="white"/>
<path d="M18.4849 0.0121441C18.6618 0.00950413 19.0129 0.00950558 19.1872 0.00950558C20.6919 0.0147855 22.1941 0.00422676 23.6989 0.0147867C23.7068 2.4726 23.683 4.93306 23.7068 7.39087C23.6909 9.42101 25.8504 11.2426 27.8542 10.6486C29.4646 10.3714 30.6024 8.74253 30.5021 7.14799C30.481 4.77993 30.5206 2.41188 30.481 0.046465C31.0565 0.00422548 31.632 -0.00369573 32.2101 0.0121441C32.2075 2.57028 32.226 5.12577 32.2022 7.68391C32.1151 10.1813 29.9398 12.3567 27.4476 12.457C24.7469 12.7447 22.1888 10.4559 22.0225 7.7763C21.9248 5.78576 22.0225 3.78995 21.975 1.79677C21.4074 1.78621 20.8424 1.78621 20.2748 1.79677C20.2775 3.75035 20.2273 5.70393 20.2986 7.65751C20.3725 10.8677 23.06 13.7717 26.2491 14.1175C27.8251 14.334 29.4434 13.9301 30.8004 13.1196C32.7777 11.8419 33.9842 9.48965 33.9314 7.14271C33.9235 4.76674 33.9314 2.3934 33.9261 0.0200637C34.5201 0.00686384 35.1141 0.00422676 35.7107 0.0147867C35.7055 2.55708 35.7239 5.10201 35.7002 7.64431C35.621 11.7679 32.2154 15.5061 28.0865 15.8837C24.8631 16.3245 21.4971 14.6534 19.8049 11.8947C19.0208 10.5272 18.5192 8.99861 18.4955 7.41199C18.4638 4.94625 18.4849 2.47788 18.4849 0.0121441Z" fill="white"/>
<path d="M36.0091 0.00164795C37.4716 0.0227677 38.9342 -0.00363377 40.3994 0.0122061C41.0884 0.0122061 41.7801 0.0069287 42.4691 0.0148486C43.6307 1.60411 44.6814 3.26993 45.843 4.85656C43.7178 7.97172 41.5161 11.0394 39.4622 14.2021C40.1671 14.21 40.8746 14.21 41.5821 14.1889C42.6037 12.6286 43.6492 11.0843 44.7368 9.56891C45.7955 11.108 46.9439 12.589 47.9206 14.1862C48.6255 14.2073 49.333 14.21 50.0379 14.1994C48.7417 12.0584 47.2026 10.0784 45.8272 7.98756C47.2184 5.92047 48.6466 3.87449 50.0696 1.82587C49.3462 1.78363 48.6202 1.77571 47.8969 1.79419C47.5933 2.28522 47.258 2.75778 46.9887 3.26729C46.5162 2.85282 46.1941 2.30898 45.8509 1.78891C46.202 1.16852 46.6112 0.58772 47.0283 0.0122061C49.1826 0.00956609 51.3368 0.0122061 53.491 0.0122061C51.6061 2.65746 49.7977 5.35815 47.9418 8.02452C49.304 9.77483 50.4524 11.6782 51.7486 13.4761C52.2898 14.3077 52.9656 15.0601 53.3722 15.9735C52.5881 15.9867 51.804 15.9761 51.0226 15.9788C49.7026 15.992 48.3826 15.9708 47.0627 15.9946C46.3155 14.8673 45.4998 13.7902 44.7632 12.6577C43.8789 13.711 43.3377 15.1076 42.2711 15.9629C40.1829 16.0104 38.0894 15.9656 35.9985 15.9814C38.5699 12.2775 41.1623 8.5842 43.6545 4.83016C43.0077 3.82697 42.3028 2.86338 41.6322 1.87603C40.8957 1.69387 40.1169 1.84171 39.3671 1.77043C40.1275 2.74722 40.7346 3.83489 41.5108 4.80112C41.1966 5.34231 40.8719 5.88615 40.4231 6.32966C38.9025 4.25728 37.5086 2.09251 36.0091 0.00164795Z" fill="white"/>
<path d="M55.4471 0.012139C57.134 0.020059 58.8236 -0.00633963 60.5132 0.0174201C60.7349 2.50955 60.4762 5.12841 60.6373 7.66542C60.793 9.60844 62.8522 11.1766 64.7662 10.6591C66.4029 10.3872 67.4827 8.72669 67.4563 7.13479C67.4537 5.23137 67.4537 3.32794 67.4537 1.42716C67.4537 0.957249 67.4563 0.489976 67.4537 0.0227012C68.0239 0.00950133 68.5968 0.0068591 69.1696 0.012139C69.1696 2.39075 69.1802 4.77201 69.167 7.15326C69.1564 8.12213 68.9162 9.06989 68.4568 9.9226C67.2873 11.9871 64.5734 13.0246 62.3348 12.1903C60.4419 11.5462 59.0453 9.70084 58.9265 7.70766C58.8157 5.73824 58.9054 3.76618 58.8764 1.79412C58.3009 1.79412 57.728 1.78356 57.1551 1.76772C57.2026 3.9061 57.0522 6.04976 57.2554 8.18021C57.6066 11.2743 60.2729 13.8905 63.3775 14.1518C65.8406 14.3974 68.4067 13.2067 69.7293 11.1027C70.6665 9.7114 70.8988 7.9875 70.8935 6.34543C70.8751 4.24666 70.912 2.14788 70.8724 0.051741C71.4691 -0.0010584 72.0683 -0.00105823 72.665 0.0147816C72.5462 3.22763 72.9791 6.49591 72.3112 9.66388C71.7568 11.7574 70.3127 13.5235 68.5123 14.6851C65.405 16.6387 61.02 16.2876 58.3352 13.7664C56.4423 12.1375 55.3969 9.62164 55.4444 7.13743C55.4471 4.76145 55.4391 2.38811 55.4471 0.012139Z" fill="white"/>
<path d="M74.5659 0.0465099C78.9298 -0.0274094 83.3121 0.0174686 87.6839 0.0201085C89.751 0.0333084 91.6492 1.67273 91.9554 3.71343C92.3118 5.72773 91.0657 7.87139 89.1702 8.60794C87.214 9.19138 85.1601 8.79274 83.159 8.85082C80.8939 8.88778 78.6236 8.78218 76.3611 8.90362C76.3743 10.6671 76.3479 12.428 76.3743 14.1915C76.963 14.2047 77.5544 14.2073 78.1457 14.2047C78.1536 13.0141 78.1404 11.8234 78.1536 10.6354C80.4003 10.646 82.6469 10.6143 84.8935 10.6513C85.5693 11.8445 86.2504 13.0352 86.9975 14.1862C87.6417 14.2047 88.2885 14.2073 88.9353 14.1968C88.3571 12.985 87.6127 11.863 86.9791 10.683C87.6655 10.6143 88.3598 10.6038 89.0462 10.675C89.9834 12.4755 91.0578 14.202 92.0769 15.9603C90.0098 16.0131 87.9427 15.9576 85.8729 15.9893C85.3027 14.7459 84.5345 13.6133 83.8771 12.4174C82.5386 12.4201 81.2002 12.4121 79.8643 12.4201C79.8591 13.5869 79.867 14.7564 79.8617 15.9233C79.7957 15.9418 79.6637 15.9787 79.5977 15.9946C77.9266 15.9708 76.2555 15.9919 74.587 15.9787C74.5765 14.6482 74.587 13.3176 74.5791 11.9871C74.5923 10.3424 74.5844 8.70034 74.5818 7.05564C78.8559 7.04508 83.1247 7.18236 87.3988 7.12692C88.637 7.13484 89.9094 6.29532 90.1259 5.0255C90.5853 3.48639 89.2679 1.77833 87.6628 1.82057C83.8982 1.74665 80.131 1.82057 76.3637 1.78361C76.3637 2.38553 76.3637 2.99008 76.3558 3.59199C80.1864 3.5524 84.0197 3.58143 87.8503 3.57615C87.9902 3.70287 88.2674 3.95631 88.4047 4.08303C88.4522 4.63478 88.2964 5.2763 87.6391 5.33174C83.6844 5.38981 79.7244 5.33173 75.7697 5.35813C75.3632 5.35549 74.954 5.38453 74.5659 5.25517C74.5976 3.51807 74.5976 1.78097 74.5659 0.0465099Z" fill="white"/>
<path d="M93.0483 0.0359221C95.5801 -0.0327172 98.1171 0.0200806 100.651 0.00952074C103.901 0.0174407 107.154 0.00424193 110.404 0.0148018C110.419 1.8047 110.382 3.5946 110.422 5.3845C106.417 5.32642 102.407 5.37658 98.4022 5.3581C98.4048 5.94946 98.4101 6.54081 98.4154 7.13216C101.383 7.14008 104.35 7.12689 107.317 7.13481C107.315 7.7288 107.325 8.32279 107.352 8.91679C103.777 8.92207 100.203 8.91943 96.6308 8.91943C96.6361 7.13217 96.5912 5.3449 96.6545 3.56028C100.67 3.56292 104.688 3.61308 108.701 3.53389C108.701 2.95045 108.701 2.36701 108.703 1.78622C104.083 1.79678 99.4661 1.79942 94.8462 1.78622C94.8567 5.92042 94.833 10.0546 94.8567 14.1888C99.4688 14.2047 104.081 14.2047 108.693 14.1888C108.703 13.6001 108.706 13.0114 108.703 12.4227C104.68 12.4174 100.654 12.4227 96.6308 12.4148C96.6229 11.8208 96.6229 11.2268 96.6334 10.6328C101.222 10.638 105.81 10.6301 110.398 10.638C110.438 12.3989 110.385 14.1651 110.427 15.9286C104.646 16.0553 98.8536 15.9497 93.0668 15.9787C93.0483 10.6644 93.0853 5.35019 93.0483 0.0359221Z" fill="white"/>
</svg>
