<svg width="38" height="38" viewBox="0 0 38 38" fill="none" xmlns="http://www.w3.org/2000/svg">
<path opacity="0.1" fill-rule="evenodd" clip-rule="evenodd" d="M19.124 36.3975C28.789 36.3975 36.624 28.5624 36.624 18.8975C36.624 9.23248 28.789 1.39746 19.124 1.39746C9.45904 1.39746 1.62402 9.23248 1.62402 18.8975C1.62402 28.5624 9.45904 36.3975 19.124 36.3975Z" stroke="#A27738" stroke-width="1.5"/>
<path d="M24.8442 15.6621C24.763 15.5704 24.6321 15.5473 24.5247 15.6039C24.4579 15.6391 24.3323 15.6852 24.1832 15.7308C24.3713 15.4736 24.5226 15.1856 24.5893 14.9268C24.6182 14.8152 24.576 14.6976 24.4841 14.6311C24.3922 14.5651 24.2698 14.5651 24.1779 14.6311C24.0331 14.735 23.3342 15.0471 22.8923 15.1483C21.8936 14.2485 20.7314 14.1551 19.5233 14.8806C18.5411 15.4703 18.3274 16.6696 18.3691 17.4006C16.1211 17.178 14.7238 15.9567 13.9373 14.946C13.8822 14.8751 13.7935 14.8377 13.7102 14.8432C13.6225 14.8498 13.5435 14.8998 13.4986 14.9773C13.1267 15.6231 13.0235 16.3371 13.2015 17.0422C13.2987 17.4269 13.4686 17.766 13.6658 18.0408C13.5712 17.993 13.4799 17.9331 13.3938 17.8617C13.3148 17.7946 13.2041 17.782 13.1106 17.8265C13.0177 17.8721 12.9583 17.9688 12.9583 18.0749C12.9583 19.2857 13.6947 20.0936 14.3824 20.5157C14.2712 20.502 14.1553 20.4767 14.0382 20.4399C13.9378 20.4086 13.8288 20.4399 13.7593 20.5212C13.6899 20.602 13.6733 20.7174 13.7166 20.8158C14.1029 21.6946 14.835 22.2992 15.7407 22.5185C14.9498 22.9961 13.8913 23.2302 12.922 23.1154C12.7964 23.0972 12.6767 23.1791 12.6372 23.3033C12.5977 23.4276 12.6495 23.5639 12.7601 23.6276C14.2306 24.4768 15.5601 24.7801 16.7089 24.7801C18.3808 24.7801 19.6713 24.1382 20.4568 23.6012C22.5743 22.1558 23.8942 19.5605 23.7104 17.2384C24.0497 16.9806 24.5573 16.5047 24.872 15.993C24.9372 15.8897 24.9254 15.7534 24.8442 15.6621Z" fill="#A27738"/>
</svg>
